<svg enable-background="new 0 0 273 597" viewBox="0 0 273 597" xmlns="http://www.w3.org/2000/svg"><path d="m119.9 527.2c-11.2-10.3-20.7-22.7-26.7-36.7-3-7-5.1-14.3-6.1-21.9-1-8.1-.4-16.2.9-24.3 2.7-16.2 8.2-32.1 8-48.7-.1-8.1-1.8-15.8-4.8-23.3s-6.9-14.7-9.9-22.2c-3.2-8-5-16.4-5-25.1 0-9.1 1.5-18.1 3.3-26.9.5-2.2.9-4.4 1.4-6.6.2-.8-1.1-1.2-1.3-.4-3.7 17.3-7.4 35.5-2.1 52.9 4.8 15.7 15.1 29.4 16.7 46.1 1.6 16.9-3.9 33.3-7 49.7-1.5 8-2.6 16.2-2 24.4.5 7.5 2.1 14.9 4.7 22 5.2 14.3 14.1 27.1 24.8 37.9 1.3 1.4 2.7 2.7 4.1 4 .7.6 1.6-.3 1-.9z"/><ellipse cx="190.8" cy="59.1" fill="#000ed0" rx="39.8" ry="49.1"/><path d="m198.9 115.1-8.1-6.9-8.2 6.9z" fill="#000ed0"/><path d="m212.6 249.8c-6.5-6-12-13.2-15.5-21.3-1.7-4-3-8.3-3.5-12.7-.6-4.7-.3-9.4.5-14.1 1.5-9.4 4.7-18.6 4.7-28.2 0-4.7-1-9.2-2.8-13.5-1.7-4.4-4-8.5-5.8-12.8-1.9-4.7-2.9-9.5-2.9-14.5 0-5.3.9-10.5 1.9-15.6.3-1.3.5-2.6.8-3.8.1-.5-.6-.7-.7-.2-2.1 10-4.3 20.6-1.2 30.6 2.8 9.1 8.8 17 9.7 26.7.9 9.8-2.2 19.3-4 28.8-.9 4.7-1.5 9.4-1.2 14.2.3 4.3 1.2 8.6 2.7 12.7 3 8.3 8.2 15.7 14.4 22 .8.8 1.6 1.5 2.4 2.3.3.3.8-.2.5-.6z"/><path d="m268.5 592.2c-15.1-4.1-28.5-13.3-38.3-25.5-4.8-6-8.8-12.8-11.5-20.1-1.5-3.9-2.5-8-3.4-12.1-1-4.6-1.9-9.2-3.7-13.5-1.6-3.9-3.9-7.4-7.1-10.1 3.2-2.1 5.4-5.8 6.7-9.4 2.2-6.4 1.5-13.3.3-19.9-.7-3.8-1.5-7.5-2.2-11.2-.6-3.8-1.1-7.7-1.5-11.6-.8-8.6-.8-17.3-.1-25.9.1-.6-.9-.6-1 0-1.1 14.4-.2 28.9 2.6 43.1 1.3 6.7 3 13.7 2 20.6-.8 5.1-3.1 10.9-7.7 13.7-.1-.1-.2-.2-.3-.2-3.5-2.6-7.9-3.9-12.2-3-.3.1-.4.4-.3.6.7 4.6 6 5.7 9.8 4.9 1-.2 2-.6 2.9-1.1 3.1 2.5 5.5 6.1 6.9 9.5 1.8 4.3 2.8 8.9 3.8 13.5.9 4 1.9 8 3.3 11.9 5.3 14.3 15.2 26.8 27.6 35.7 7 5 14.8 8.7 23.1 11 .7.3.9-.7.3-.9zm-76.6-84.2c4-.7 7.7.6 10.8 2.9-3.6 1.6-9.7 1.5-10.8-2.9z"/><g fill="#000ed0"><ellipse cx="82.2" cy="197.7" rx="68.8" ry="84.8"/><path d="m96.2 294.5-14-12-14 12z"/><ellipse cx="207" cy="362" rx="51.5" ry="63.5"/><path d="m217.5 434.5-10.5-9-10.5 9z"/></g></svg>