<?xml version="1.0" encoding="utf-8"?>
<!-- Generator: Adobe Illustrator 24.1.3, SVG Export Plug-In . SVG Version: 6.00 Build 0)  -->
<svg version="1.1" id="Laag_1" xmlns="http://www.w3.org/2000/svg" xmlns:xlink="http://www.w3.org/1999/xlink" x="0px" y="0px"
	 viewBox="0 0 34.6 34.6" style="enable-background:new 0 0 34.6 34.6;" xml:space="preserve">
<style type="text/css">
	.st0{fill:#18696E;}
	.st1{fill:#31B6DD;}
	.st2{fill:#E62050;}
	.st3{fill:#484E57;}
	.st4{fill:none;stroke:#484E57;stroke-width:1.5;stroke-miterlimit:10;}
</style>
<path class="st0" d="M25,4.2c0,0-3.6,0-7.9,0c-4.4,0-7.9,0-7.9,0h-3V6h0.2c0.4,3,3,8.2,6.6,10.8c0.9,1.5,1.9,2.6,3,3h-0.1v4.7
	c0,2-1.6,3.6-3.6,3.6h-0.2c-0.4,0-0.7,0.3-0.7,0.7v1c-0.4,0-0.6,0.3-0.6,0.7v0.4h12.6v-0.4c0-0.4-0.3-0.7-0.6-0.7v-1
	c0-0.4-0.3-0.7-0.7-0.7H22c-2,0-3.6-1.6-3.6-3.6v-4.7h-0.2c1-0.4,2-1.5,2.8-2.8c3.7-2.5,6.4-7.9,6.9-11H28V4.2H25z M7.5,6h1.7
	c0.3,2.3,1.1,5.3,2.3,8C9.4,11.5,7.9,8.2,7.5,6z M22.4,14.4c1.2-2.8,2.1-6,2.4-8.4h1.9C26.4,8.3,24.7,11.9,22.4,14.4z"/>
<path class="st1" d="M23.4,5c-0.3,3.2-1.8,8.3-4,11.8c1.1-3.9,1.9-8.5,2.2-11.8C21.6,5,23.4,5,23.4,5z"/>
<path class="st2" d="M23.4,30.1v0.8H10.8v-0.8c0-0.8,0.3-1.5,0.6-1.5v-0.2h11.4v0.2C23.1,28.6,23.4,29.2,23.4,30.1z"/>
<path class="st3" d="M33.2,17.2L33.2,17.2z"/>
<path class="st4" d="M28,4.2V6h-0.1c-0.5,3.1-3.2,8.5-6.9,11c-0.8,1.3-1.7,2.3-2.6,2.7v4.8c0,2,1.6,3.6,3.6,3.6l0,0
	c0.4,0,0.7,0.3,0.7,0.7v1c0.4,0,0.6,0.3,0.6,0.7v0.4H10.7v-0.4c0-0.4,0.3-0.7,0.6-0.7v-1c0-0.4,0.3-0.7,0.7-0.7h0.2
	c2,0,3.6-1.6,3.6-3.6v-4.8c-1-0.5-2-1.6-2.9-3C9.4,14.2,6.8,9,6.4,6H6.2V4.2h2.9c0,0,3.6,0,7.9,0s7.9,0,7.9,0H28z"/>
</svg>
