<svg style="fill: #17686d" xmlns="http://www.w3.org/2000/svg" viewBox="0 0 28.34 24.38"><title>add_person</title><g id="Laag_2" data-name="Laag 2"><g id="Laag_1-2" data-name="Laag 1"><path d="M10.7,24.33c-1.74,0-3.48,0-5.21,0-3,.1-5.86.25-5.45-4.15.36-3.86,3.56-7,6.84-6.16a13.3,13.3,0,0,0,7.4,0c2.27-.64,4.16.7,5.5,2.49A6.78,6.78,0,0,1,20.6,23c-.38,1.16-1.54,1.33-2.68,1.32C15.52,24.31,13.11,24.33,10.7,24.33Z"/><path d="M16.6,6.15a6.38,6.38,0,0,1-6.34,6A6.26,6.26,0,0,1,4.53,5.58,5.82,5.82,0,0,1,10.62,0,6,6,0,0,1,16.6,6.15Z"/><rect x="23.15" y="6" width="1.81" height="8.58"/><rect x="23.15" y="6" width="1.81" height="8.58" transform="translate(34.35 -13.76) rotate(90)"/></g></g></svg>