<?xml version="1.0" encoding="utf-8"?>
<!-- Generator: Adobe Illustrator 24.1.3, SVG Export Plug-In . SVG Version: 6.00 Build 0)  -->
<svg version="1.1" id="Laag_1" xmlns="http://www.w3.org/2000/svg" xmlns:xlink="http://www.w3.org/1999/xlink" x="0px" y="0px"
	 viewBox="0 0 44 37" style="enable-background:new 0 0 44 37;" xml:space="preserve">
<style type="text/css">
	.st0{fill:#E51F4F;}
	.st1{fill:#51B3DC;}
	.st2{fill:#17686D;}
</style>
<polygon class="st0" points="9.2,30.7 2.3,30.7 3.1,29.8 5.1,27.4 12.4,18.8 5.1,10.1 3.1,7.8 2.3,6.9 9.2,6.9 19.3,18.8 "/>
<path class="st1" d="M40.5,19c0,6.9-5.6,12.5-12.5,12.5c-1.7,0-3.4-0.4-4.9-1l2.6-3.1c0.7,0.2,1.5,0.3,2.3,0.3
	c4.8,0,8.7-3.9,8.7-8.7c0-4.8-3.9-8.7-8.7-8.7c-0.7,0-1.3,0.1-1.9,0.2l-2.7-3.2c1.4-0.6,3-0.9,4.6-0.9C34.9,6.5,40.5,12.1,40.5,19z"
	/>
<polygon class="st2" points="18.4,30.7 11.5,30.7 12.3,29.8 14.3,27.4 21.6,18.8 14.3,10.1 12.3,7.8 11.5,6.9 18.4,6.9 28.5,18.8 
	"/>
</svg>
