<?xml version="1.0" encoding="utf-8"?>
<!-- Generator: Adobe Illustrator 24.1.2, SVG Export Plug-In . SVG Version: 6.00 Build 0)  -->
<svg version="1.1" id="balloons" xmlns="http://www.w3.org/2000/svg" xmlns:xlink="http://www.w3.org/1999/xlink" x="0px" y="0px"
	 viewBox="0 0 273 597" style="enable-background:new 0 0 273 597;" xml:space="preserve">
<style type="text/css">
	.st0{fill:#000ED0;}
</style>
<path d="M119.9,527.2c-11.2-10.3-20.7-22.7-26.7-36.7c-3-7-5.1-14.3-6.1-21.9c-1-8.1-0.4-16.2,0.9-24.3c2.7-16.2,8.2-32.1,8-48.7
	c-0.1-8.1-1.8-15.8-4.8-23.3c-3-7.5-6.9-14.7-9.9-22.2c-3.2-8-5-16.4-5-25.1c0-9.1,1.5-18.1,3.3-26.9c0.5-2.2,0.9-4.4,1.4-6.6
	c0.2-0.8-1.1-1.2-1.3-0.4c-3.7,17.3-7.4,35.5-2.1,52.9c4.8,15.7,15.1,29.4,16.7,46.1c1.6,16.9-3.9,33.3-7,49.7
	c-1.5,8-2.6,16.2-2,24.4c0.5,7.5,2.1,14.9,4.7,22c5.2,14.3,14.1,27.1,24.8,37.9c1.3,1.4,2.7,2.7,4.1,4
	C119.6,528.7,120.5,527.8,119.9,527.2z"/>
<g>
	<ellipse class="st0" cx="190.8" cy="59.1" rx="39.8" ry="49.1"/>
	<polygon class="st0" points="198.9,115.1 190.8,108.2 182.6,115.1 	"/>
</g>
<path d="M212.6,249.8c-6.5-6-12-13.2-15.5-21.3c-1.7-4-3-8.3-3.5-12.7c-0.6-4.7-0.3-9.4,0.5-14.1c1.5-9.4,4.7-18.6,4.7-28.2
	c0-4.7-1-9.2-2.8-13.5c-1.7-4.4-4-8.5-5.8-12.8c-1.9-4.7-2.9-9.5-2.9-14.5c0-5.3,0.9-10.5,1.9-15.6c0.3-1.3,0.5-2.6,0.8-3.8
	c0.1-0.5-0.6-0.7-0.7-0.2c-2.1,10-4.3,20.6-1.2,30.6c2.8,9.1,8.8,17,9.7,26.7c0.9,9.8-2.2,19.3-4,28.8c-0.9,4.7-1.5,9.4-1.2,14.2
	c0.3,4.3,1.2,8.6,2.7,12.7c3,8.3,8.2,15.7,14.4,22c0.8,0.8,1.6,1.5,2.4,2.3C212.4,250.7,212.9,250.2,212.6,249.8z"/>
<path d="M268.5,592.2c-15.1-4.1-28.5-13.3-38.3-25.5c-4.8-6-8.8-12.8-11.5-20.1c-1.5-3.9-2.5-8-3.4-12.1c-1-4.6-1.9-9.2-3.7-13.5
	c-1.6-3.9-3.9-7.4-7.1-10.1c3.2-2.1,5.4-5.8,6.7-9.4c2.2-6.4,1.5-13.3,0.3-19.9c-0.7-3.8-1.5-7.5-2.2-11.2
	c-0.6-3.8-1.1-7.7-1.5-11.6c-0.8-8.6-0.8-17.3-0.1-25.9c0.1-0.6-0.9-0.6-1,0c-1.1,14.4-0.2,28.9,2.6,43.1c1.3,6.7,3,13.7,2,20.6
	c-0.8,5.1-3.1,10.9-7.7,13.7c-0.1-0.1-0.2-0.2-0.3-0.2c-3.5-2.6-7.9-3.9-12.2-3c-0.3,0.1-0.4,0.4-0.3,0.6c0.7,4.6,6,5.7,9.8,4.9
	c1-0.2,2-0.6,2.9-1.1c3.1,2.5,5.5,6.1,6.9,9.5c1.8,4.3,2.8,8.9,3.8,13.5c0.9,4,1.9,8,3.3,11.9c5.3,14.3,15.2,26.8,27.6,35.7
	c7,5,14.8,8.7,23.1,11C268.9,593.4,269.1,592.4,268.5,592.2z M191.9,508c4-0.7,7.7,0.6,10.8,2.9C199.1,512.5,193,512.4,191.9,508z"
	/>
<g>
	<ellipse class="st0" cx="82.2" cy="197.7" rx="68.8" ry="84.8"/>
	<polygon class="st0" points="96.2,294.5 82.2,282.5 68.2,294.5 	"/>
</g>
<g>
	<ellipse class="st0" cx="207" cy="362" rx="51.5" ry="63.5"/>
	<polygon class="st0" points="217.5,434.5 207,425.5 196.5,434.5 	"/>
</g>
</svg>
