<?xml version="1.0" encoding="utf-8"?>
<!-- Generator: Adobe Illustrator 24.1.2, SVG Export Plug-In . SVG Version: 6.00 Build 0)  -->
<svg version="1.1" id="connection" xmlns="http://www.w3.org/2000/svg" xmlns:xlink="http://www.w3.org/1999/xlink" x="0px" y="0px"
	 viewBox="0 0 792 585" style="enable-background:new 0 0 792 585;" xml:space="preserve">
<style type="text/css">
	.st0{fill:none;stroke:#E8E8ED;stroke-width:4;stroke-miterlimit:10;}
	.st1{fill:#17686D;}
	.st2{fill:#FFFFFF;}
</style>
<line class="st0" x1="172.4" y1="342.2" x2="519" y2="424"/>
<line class="st0" x1="352.9" y1="269.1" x2="519" y2="424"/>
<line class="st0" x1="153.3" y1="328.6" x2="647" y2="206"/>
<line class="st0" x1="654" y1="454" x2="652.9" y2="202.7"/>
<line class="st0" x1="365" y1="272" x2="491.9" y2="76.7"/>
<line class="st0" x1="96" y1="329" x2="478.9" y2="57.7"/>
<line class="st0" x1="488.6" y1="64.1" x2="649.8" y2="207.6"/>
<g>
	<circle class="st1" cx="96.1" cy="307.3" r="83.9"/>
	<g id="Laag_2">
		<g id="Laag_1-2">
			<path class="st2" d="M96.8,359.9c-7.5,0-15.1,0-22.6,0c-13,0.4-25.4,1.1-23.6-18c1.6-16.7,15.4-30.3,29.6-26.7
				c10.5,3,21.6,3,32,0c9.8-2.8,18,3,23.8,10.8c5.9,8.1,7.3,18.7,3.6,28.1c-1.6,5-6.7,5.8-11.6,5.7
				C117.6,359.8,107.2,359.9,96.8,359.9z"/>
			<path class="st2" d="M122.3,281.2c-0.9,14.5-12.9,25.9-27.4,26C80.3,306,69.3,293.4,70,278.8c0.6-13.9,12.3-24.7,26.2-24.2
				c0.1,0,0.1,0,0.2,0c14.3,0,25.9,11.7,25.9,26.1C122.3,280.8,122.3,281,122.3,281.2z"/>
		</g>
	</g>
</g>
<g>
	<circle class="st1" cx="492.1" cy="78.3" r="63.9"/>
	<g id="Laag_2_1_">
		<g id="Laag_1-2_1_">
			<path class="st2" d="M492.6,118.4c-5.7,0-11.5,0-17.2,0c-9.9,0.3-19.3,0.8-18-13.7c1.2-12.7,11.7-23.1,22.6-20.3
				c8,2.3,16.4,2.3,24.4,0c7.5-2.1,13.7,2.3,18.1,8.2c4.5,6.2,5.5,14.3,2.7,21.4c-1.3,3.8-5.1,4.4-8.8,4.4
				C508.5,118.3,500.5,118.4,492.6,118.4z"/>
			<path class="st2" d="M512.1,58.4c-0.7,11.1-9.8,19.7-20.9,19.8c-11.1-0.9-19.5-10.5-18.9-21.7c0.4-10.6,9.4-18.8,19.9-18.4
				c0,0,0.1,0,0.1,0c10.9,0,19.8,8.9,19.7,19.8C512.1,58.1,512.1,58.3,512.1,58.4z"/>
		</g>
	</g>
</g>
<g>
	<circle class="st1" cx="639.9" cy="442.2" r="134.8"/>
	<g id="Laag_2_2_">
		<g id="Laag_1-2_2_">
			<path class="st2" d="M641.1,526.7c-12.1,0-24.2,0-36.2,0c-20.9,0.7-40.7,1.7-37.9-28.9c2.5-26.8,24.8-48.7,47.6-42.8
				c16.8,4.9,34.6,4.9,51.5,0c15.8-4.5,28.9,4.9,38.2,17.3c9.5,13.1,11.7,30.1,5.7,45.1c-2.6,8.1-10.7,9.2-18.6,9.2
				C674.6,526.6,657.8,526.7,641.1,526.7z"/>
			<path class="st2" d="M682.1,400.3c-1.4,23.4-20.7,41.6-44.1,41.7c-23.4-2-41.1-22.2-39.8-45.7c0.9-22.3,19.7-39.7,42.1-38.8
				c0.1,0,0.2,0,0.3,0c23,0.1,41.7,18.8,41.6,41.8C682.1,399.7,682.1,400,682.1,400.3z"/>
		</g>
	</g>
</g>
<g>
	<circle class="st1" cx="653.9" cy="202.5" r="36.5"/>
	<g id="Laag_2_3_">
		<g id="Laag_1-2_3_">
			<path class="st2" d="M654.2,225.4c-3.3,0-6.6,0-9.8,0c-5.6,0.2-11,0.5-10.3-7.8c0.7-7.3,6.7-13.2,12.9-11.6
				c4.6,1.3,9.4,1.3,13.9,0c4.3-1.2,7.8,1.3,10.4,4.7c2.6,3.5,3.2,8.2,1.5,12.2c-0.7,2.2-2.9,2.5-5,2.5
				C663.3,225.3,658.8,225.4,654.2,225.4z"/>
			<path class="st2" d="M665.3,191.2c-0.4,6.3-5.6,11.3-11.9,11.3c-6.3-0.5-11.1-6-10.8-12.4c0.2-6,5.3-10.8,11.4-10.5
				c0,0,0.1,0,0.1,0c6.2,0,11.3,5.1,11.3,11.3C665.4,191,665.4,191.1,665.3,191.2z"/>
		</g>
	</g>
</g>
<g>
	<circle class="st1" cx="364.9" cy="272" r="24"/>
	<g id="Laag_2_4_">
		<g id="Laag_1-2_4_">
			<path class="st2" d="M365.1,287c-2.2,0-4.3,0-6.4,0c-3.7,0.1-7.3,0.3-6.7-5.1c0.4-4.8,4.4-8.7,8.5-7.6c3,0.9,6.2,0.9,9.2,0
				c2.8-0.8,5.1,0.9,6.8,3.1c1.7,2.3,2.1,5.4,1,8c-0.5,1.4-1.9,1.6-3.3,1.6C371.1,287,368.1,287,365.1,287z"/>
			<path class="st2" d="M372.4,264.5c-0.2,4.2-3.7,7.4-7.8,7.4c-4.2-0.3-7.3-4-7.1-8.1c0.2-4,3.5-7.1,7.5-6.9c0,0,0,0,0.1,0
				c4.1,0,7.4,3.3,7.4,7.5C372.4,264.4,372.4,264.5,372.4,264.5z"/>
		</g>
	</g>
</g>
</svg>
