<?xml version="1.0" encoding="utf-8"?>
<!-- Generator: Adobe Illustrator 24.1.3, SVG Export Plug-In . SVG Version: 6.00 Build 0)  -->
<svg version="1.1" id="Laag_1" xmlns="http://www.w3.org/2000/svg" xmlns:xlink="http://www.w3.org/1999/xlink" x="0px" y="0px"
	 viewBox="0 0 29.6 29.6" style="enable-background:new 0 0 29.6 29.6;" xml:space="preserve">
<style type="text/css">
	.st0{fill:#E62050;}
	.st1{fill:#31B6DD;}
	.st2{fill:#18696E;}
	.st3{fill:none;stroke:#484E57;stroke-miterlimit:10;}
</style>
<g id="Laag_2_1_">
	<g id="Laag_1-2">
		<path class="st0" d="M28.9,14.5V15c0,0,0,0,0,0c-0.1,0.9-0.9,1.5-1.7,1.5h-1.7v0.1h-23c-1,0-1.8-0.8-1.8-1.8c0-0.2,0-0.4,0.1-0.6
			c0.1-0.4,0.4-0.7,0.7-1l3-3.1l7.9-7.8c0.5-0.5,0.9-0.9,1.4-1.3c0.5-0.5,1.3-0.6,1.9-0.3c0.3,0.2,0.6,0.4,0.8,0.6l2,2L20,5.1
			c0,0,0,0,0,0.1v0l5.4,5.4l1.3,1.3l1.5,1.5c0.2,0.2,0.4,0.5,0.5,0.8C28.8,14.3,28.8,14.4,28.9,14.5z"/>
	</g>
</g>
<path class="st1" d="M25.4,11.2L20,5.8V3.9c0.1-0.8,0.9-1.5,1.7-1.5h2c0.9,0.1,1.6,0.9,1.6,1.8v6.1C25.3,10.4,25.4,11.1,25.4,11.2z"
	/>
<path class="st2" d="M25.4,16.6v10.5c0,0.7-0.4,1.3-1,1.6c-0.2,0.1-0.3,0.1-0.5,0.2h-5.5v-7.3c0-0.1,0-0.2,0-0.4
	c-0.2-0.9-0.9-1.5-1.8-1.4h-3.5c-0.1,0-0.2,0-0.4,0c-0.8,0.2-1.4,0.9-1.4,1.8l0,7.4H5.7c-0.9-0.1-1.5-0.9-1.5-1.8V16.6H25.4z"/>
<path class="st3" d="M20,5.1l-1.7-1.7l-2-2c-0.2-0.3-0.5-0.5-0.8-0.6c-0.6-0.3-1.4-0.2-1.9,0.3c-0.5,0.4-0.9,0.9-1.4,1.3l-7.9,7.8
	l-3,3.1c-0.3,0.3-0.5,0.6-0.7,1c-0.1,0.2-0.1,0.4-0.1,0.6c0,1,0.8,1.8,1.8,1.8h1.8v10.6c0,0.9,0.7,1.6,1.5,1.8h5.5l0-7.3
	c0-0.9,0.6-1.6,1.4-1.8c0.1,0,0.2,0,0.4,0h3.5c0.9,0,1.6,0.6,1.8,1.4c0,0.1,0,0.2,0,0.4v7.2h5.5c0.2,0,0.3-0.1,0.5-0.2
	c0.6-0.3,1.1-0.9,1-1.6V16.5h1.7c0.9,0,1.6-0.6,1.7-1.5c0,0,0,0,0,0v-0.5c0-0.1-0.1-0.3-0.1-0.4c-0.1-0.3-0.3-0.6-0.5-0.8l-1.5-1.5
	l-1.3-1.3c0,0-0.1-0.1-0.1-0.2V4.2c0-0.9-0.7-1.7-1.6-1.8h-2c-0.9,0-1.6,0.6-1.7,1.5L20,5.1z"/>
<line class="st3" x1="4.2" y1="16.6" x2="25.4" y2="16.6"/>
</svg>
