<?xml version="1.0" encoding="utf-8"?>
<!-- Generator: Adobe Illustrator 24.1.3, SVG Export Plug-In . SVG Version: 6.00 Build 0)  -->
<svg version="1.1" id="Laag_1" xmlns="http://www.w3.org/2000/svg" xmlns:xlink="http://www.w3.org/1999/xlink" x="0px" y="0px"
	 viewBox="0 0 34.6 34.6" style="enable-background:new 0 0 34.6 34.6;" xml:space="preserve">
<style type="text/css">
	.st0{fill:#484E57;}
	.st1{fill:#18696E;}
	.st2{fill:none;stroke:#FFFFFF;stroke-width:2;stroke-miterlimit:10;}
	.st3{fill:#F6F6F9;}
	.st4{fill:#FFFFFF;}
</style>
<path class="st0" d="M28.3,7.1h-0.7V6.5l1.3-1.4c0,0.2,0.1,0.3,0.3,0.5c0.1,0.1,0.3,0.2,0.4,0.2L28.3,7.1z"/>
<path class="st1" d="M8.4,10.9c0.4-0.6,0.8-1.1,1.4-1.6c-0.3,0.3-0.6,0.6-0.8,0.9C8.7,10.5,8.5,10.7,8.4,10.9z"/>
<path class="st1" d="M12.7,7.3c-0.2,0.1-0.3,0.2-0.5,0.3c0,0,0.1-0.1,0.2-0.1C12.5,7.4,12.6,7.3,12.7,7.3z"/>
<path class="st1" d="M15.6,6.4c-1,0.2-1.9,0.5-2.8,0.9C13.6,6.8,14.6,6.5,15.6,6.4z"/>
<path class="st1" d="M14.6,12.5c0.7-0.4,1.5-0.7,2.2-0.7c-1.2,0.1-2.3,0.6-3.2,1.5c-0.5,0.4-0.8,0.9-1.1,1.5
	C13,13.8,13.7,13,14.6,12.5z"/>
<path class="st1" d="M18.3,28c-2.2,0.2-4.5-0.3-6.4-1.4c0.3,0.2,0.7,0.3,1,0.5C14.6,27.9,16.5,28.2,18.3,28z"/>
<path class="st1" d="M21.2,6.9c0.6,0.2,1.2,0.5,1.8,0.8c-0.3-0.2-0.6-0.3-0.9-0.5C21.8,7.2,21.5,7,21.2,6.9z"/>
<path class="st1" d="M21,6.8c0.1,0,0.1,0.1,0.2,0.1C21.1,6.9,21,6.9,21,6.8z"/>
<path class="st1" d="M19.1,6.4c0.2,0,0.4,0.1,0.6,0.1C19.5,6.4,19.3,6.4,19.1,6.4z"/>
<path class="st1" d="M20.2,6.6c0.3,0.1,0.5,0.1,0.8,0.2C20.7,6.8,20.5,6.7,20.2,6.6z"/>
<path class="st1" d="M18,6.2c0.4,0,0.8,0.1,1.2,0.1C18.7,6.3,18.4,6.3,18,6.2z"/>
<path class="st1" d="M19.7,6.5c0.2,0,0.3,0.1,0.5,0.1C20,6.6,19.9,6.5,19.7,6.5z"/>
<path class="st1" d="M24.3,8.7c0,0,0.1,0.1,0.1,0.1l0,0C24.4,8.8,24.4,8.8,24.3,8.7z"/>
<path class="st1" d="M26.3,10.8c-0.2-0.2-0.3-0.5-0.5-0.7l0,0C26,10.4,26.1,10.6,26.3,10.8z"/>
<path class="st2" d="M27.8,13.9c-0.2-0.7-0.5-1.3-0.8-2c-0.1-0.1-0.1-0.3-0.2-0.4c-0.1-0.2-0.3-0.5-0.4-0.7
	c-0.2-0.2-0.3-0.5-0.5-0.7c-0.2-0.2-0.3-0.4-0.5-0.5c-0.3-0.3-0.5-0.5-0.8-0.8c0,0-0.1-0.1-0.1-0.1c-0.2-0.1-0.4-0.3-0.6-0.4
	c-0.1-0.1-0.3-0.2-0.4-0.3c-0.1-0.1-0.3-0.2-0.4-0.3c-0.3-0.2-0.6-0.3-0.9-0.5c-1.3-0.6-2.7-1-4.1-1c-0.2,0-0.4,0-0.6,0
	c-0.4,0-0.8,0-1.2,0.1c-0.2,0-0.4,0.1-0.6,0.1c-1,0.2-1.9,0.5-2.8,0.9c-0.2,0.1-0.3,0.2-0.5,0.3c-0.4,0.2-0.7,0.4-1.1,0.7
	c-0.2,0.1-0.3,0.2-0.5,0.4c-0.2,0.1-0.3,0.3-0.5,0.4C10,9,9.9,9.2,9.8,9.3c-0.3,0.3-0.6,0.6-0.8,0.9c-0.2,0.2-0.4,0.4-0.5,0.7
	c-0.1,0.2-0.2,0.4-0.4,0.5c-0.1,0.2-0.3,0.4-0.4,0.6c0,0,0,0,0,0c-0.1,0.2-0.2,0.4-0.3,0.6c0,0,0,0.1-0.1,0.2
	c-0.1,0.2-0.2,0.4-0.2,0.6c0,0,0,0.1,0,0.1C7,13.7,6.9,14,6.9,14.2c0,0,0,0,0,0c-0.1,0.2-0.1,0.5-0.2,0.7s-0.1,0.5-0.1,0.7
	c0,0.3-0.1,0.6-0.1,0.8c0,0.3,0,0.5,0,0.8c0,0.4,0,0.8,0.1,1.2c0.1,0.4,0.1,0.8,0.2,1.3c0.1,0.6,0.3,1.1,0.5,1.6
	c0.1,0.2,0.2,0.4,0.3,0.7c0.1,0.2,0.2,0.4,0.3,0.6c0.1,0.1,0.2,0.3,0.2,0.4c0.1,0.1,0.2,0.3,0.3,0.4c0.1,0.1,0.2,0.3,0.3,0.4
	c0.2,0.2,0.4,0.5,0.6,0.7c0,0,0,0.1,0.1,0.1c0.1,0.1,0.1,0.1,0.2,0.2c0.2,0.2,0.4,0.4,0.6,0.6c0.3,0.2,0.5,0.4,0.8,0.6
	c0.2,0.1,0.4,0.3,0.5,0.4c0.2,0.1,0.3,0.2,0.5,0.3c0.3,0.2,0.7,0.3,1,0.5c1.7,0.8,3.6,1.1,5.4,0.9c0.2,0,0.3,0,0.5,0
	c0.3,0,0.6-0.1,0.9-0.2c0.2,0,0.3-0.1,0.5-0.1c0.3-0.1,0.6-0.2,0.8-0.3c0.3-0.1,0.7-0.3,1-0.4c0.2-0.1,0.3-0.2,0.5-0.3
	c0.2-0.1,0.5-0.3,0.7-0.4c0.2-0.1,0.4-0.3,0.5-0.4c0.2-0.1,0.4-0.3,0.5-0.4c0,0,0.1,0,0.1-0.1c0.2-0.1,0.3-0.3,0.5-0.5
	c0.3-0.3,0.6-0.7,0.9-1c0.1-0.2,0.3-0.3,0.4-0.5c0-0.1,0.1-0.1,0.1-0.2c0.1-0.1,0.2-0.3,0.3-0.4c0.2-0.2,0.3-0.5,0.4-0.7
	c0.4-0.8,0.7-1.6,0.9-2.5c0.1-0.6,0.2-1.2,0.3-1.8c0-0.4,0-0.8,0-1.2C28.2,15.7,28,14.7,27.8,13.9z M17.3,22.5
	c-1.6,0-3.2-0.7-4.3-2.1c-0.9-1.1-1.3-2.5-1.1-3.9c0-0.4,0.2-0.9,0.3-1.3c0-0.1,0.1-0.2,0.1-0.3c0-0.1,0-0.1,0.1-0.2
	c0.4-0.9,1.2-1.7,2.1-2.2c0.7-0.4,1.5-0.7,2.2-0.7c0.1,0,0.3,0,0.4,0h0.1c0.9,0,1.7,0.2,2.5,0.6c0.1,0.1,0.3,0.2,0.4,0.2
	c0.8,0.5,1.4,1.2,1.8,2c0.1,0.2,0.2,0.4,0.3,0.5c0,0.1,0.1,0.2,0.1,0.4c0.1,0.3,0.2,0.5,0.2,0.8c0,0,0,0.1,0,0.1c0,0.1,0,0.3,0,0.4
	c0.1,1.6-0.6,3.3-1.9,4.4c-0.1,0.1-0.2,0.2-0.3,0.2c-0.9,0.6-1.8,1-2.8,1.1C17.6,22.5,17.5,22.5,17.3,22.5z"/>
<path class="st3" d="M29.6,5.8l-1.3,1.3h-0.7V6.5l1.3-1.4c0,0.2,0.1,0.3,0.3,0.5C29.2,5.7,29.4,5.8,29.6,5.8z"/>
<path class="st4" d="M34.5,15.3c-0.3-3-1.5-5.8-3.2-8.2c-0.1-0.1-0.1-0.2,0-0.3c0.3-0.3,0.7-0.7,1-1c0.3-0.2,0.4-0.7,0.3-1
	c-0.1-0.4-0.4-0.6-0.8-0.6l-0.9-0.1c-0.1,0-0.2,0-0.2-0.2c0-0.2,0-0.4-0.1-0.6c0-0.2,0-0.4-0.1-0.6c-0.1-0.1-0.1-0.2-0.2-0.3
	c-0.4-0.3-1-0.3-1.3,0c-0.4,0.4-0.7,0.7-1,1c-0.1,0.1-0.2,0.1-0.3,0c-1-0.8-2-1.4-3.1-1.9c-3.3-1.5-7-2-10.6-1.3
	c-1.8,0.3-3.4,1-5,1.8c-5.5,3.1-9,8.9-8.9,15.3c0,0.9,0.1,1.8,0.2,2.7c0.3,1.6,0.8,3.2,1.5,4.7c1.8,3.6,4.7,6.5,8.4,8.2
	c3,1.4,6.2,1.9,9.5,1.4c8.5-1.1,14.9-8.3,15-16.8C34.6,16.9,34.5,16.1,34.5,15.3z M27.6,6.5l1.3-1.4c0,0.2,0.1,0.3,0.3,0.5
	c0.1,0.1,0.3,0.2,0.4,0.2l-1.3,1.3h-0.7V6.5z M28.4,27.9c-2.3,2.5-5.5,4.1-8.9,4.6c-3.8,0.6-7.7-0.3-10.9-2.5
	c-3.5-2.3-5.9-6-6.6-10.1c-0.3-1.6-0.3-3.3-0.1-4.9c0.5-3.5,2.1-6.6,4.7-9C9.9,3,14.4,1.5,18.9,1.9c2.7,0.3,5.3,1.3,7.4,2.9
	c0.1,0.1,0.1,0.1,0,0.3c-0.1,0.1-0.3,0.3-0.4,0.4c-0.2,0.2-0.3,0.6-0.3,0.9c0,0.4,0.1,0.7,0.1,1.1c0,0.1,0,0.1,0,0.2l-0.3,0.2
	l-0.3,0.3l-0.6,0.6l-4,3.9h0l-1,1l-0.3,0.3l-2.6,2.5c-0.4,0.3-0.4,0.9-0.1,1.3c0.3,0.4,0.9,0.4,1.3,0.1c0,0,0,0,0.1-0.1l2.8-2.8
	l0.9-0.9l0.1-0.1l4-3.9l0,0l0.8-0.8L27,8.9c0,0,0.1-0.1,0.2-0.1L28.2,9c0.4,0.1,0.7-0.1,1-0.3c0.1-0.1,0.3-0.2,0.4-0.4
	s0.2-0.1,0.3,0c0.8,1.1,1.5,2.4,1.9,3.7c0.5,1.3,0.8,2.7,0.9,4.1C33,20.5,31.4,24.8,28.4,27.9z"/>
<path class="st1" d="M-29.4,10.9c0.4-0.6,0.8-1.1,1.4-1.6c-0.3,0.3-0.6,0.6-0.8,0.9C-29.1,10.5-29.2,10.7-29.4,10.9z"/>
<path class="st1" d="M-25.1,7.3c-0.2,0.1-0.3,0.2-0.5,0.3c0,0,0.1-0.1,0.2-0.1C-25.3,7.4-25.2,7.3-25.1,7.3z"/>
<path class="st1" d="M-22.2,6.4c-1,0.2-1.9,0.5-2.8,0.9C-24.2,6.8-23.2,6.5-22.2,6.4z"/>
<path class="st1" d="M-23.2,12.5c0.7-0.4,1.5-0.7,2.2-0.7c-1.2,0.1-2.3,0.6-3.2,1.5c-0.5,0.4-0.8,0.9-1.1,1.5
	C-24.8,13.8-24.1,13-23.2,12.5z"/>
<path class="st1" d="M-19.5,28c-2.2,0.2-4.5-0.3-6.4-1.4c0.3,0.2,0.7,0.3,1,0.5C-23.1,27.9-21.3,28.2-19.5,28z"/>
<path class="st1" d="M-16.6,6.9c0.6,0.2,1.2,0.5,1.8,0.8c-0.3-0.2-0.6-0.3-0.9-0.5C-16,7.2-16.3,7-16.6,6.9z"/>
<path class="st1" d="M-16.8,6.8c0.1,0,0.1,0.1,0.2,0.1C-16.7,6.9-16.7,6.9-16.8,6.8z"/>
<path class="st1" d="M-18.7,6.4c0.2,0,0.4,0.1,0.6,0.1C-18.3,6.4-18.5,6.4-18.7,6.4z"/>
<path class="st1" d="M-17.6,6.6c0.3,0.1,0.5,0.1,0.8,0.2C-17.1,6.8-17.3,6.7-17.6,6.6z"/>
<path class="st1" d="M-19.8,6.2c0.4,0,0.8,0.1,1.2,0.1C-19,6.3-19.4,6.3-19.8,6.2z"/>
<path class="st1" d="M-18.1,6.5c0.2,0,0.3,0.1,0.5,0.1C-17.8,6.6-17.9,6.5-18.1,6.5z"/>
<path class="st1" d="M-13.4,8.7c0,0,0.1,0.1,0.1,0.1l0,0C-13.3,8.8-13.4,8.8-13.4,8.7z"/>
<path class="st1" d="M-11.8,10.4c-0.1-0.1-0.1-0.2-0.2-0.3l0,0l0,0C-11.9,10.2-11.9,10.3-11.8,10.4z"/>
<polygon class="st0" points="-12.3,7.9 -12.3,7.9 -12.6,8.2 "/>
</svg>
