<?xml version="1.0" encoding="utf-8"?>
<!-- Generator: Adobe Illustrator 24.1.3, SVG Export Plug-In . SVG Version: 6.00 Build 0)  -->
<svg version="1.1" id="Laag_1" xmlns="http://www.w3.org/2000/svg" xmlns:xlink="http://www.w3.org/1999/xlink" x="0px" y="0px"
	 viewBox="0 0 23.8 35.3" style="enable-background:new 0 0 23.8 35.3;" xml:space="preserve">
<style type="text/css">
	.st0{fill:#51B3DC;}
	.st1{fill:#17686D;}
	.st2{fill:#E51F4F;}
</style>
<polygon class="st0" points="23.8,10.1 23.8,16.9 22.9,16.2 20.6,14.1 11.9,6.8 3.2,14.1 0.9,16.2 0,16.9 0,10.1 11.9,0 "/>
<polygon class="st1" points="23.8,19.3 23.8,26.1 22.9,25.4 20.6,23.3 11.9,16 3.2,23.3 0.9,25.4 0,26.1 0,19.3 11.9,9.2 "/>
<polygon class="st2" points="23.8,28.5 23.8,35.3 22.9,34.6 20.6,32.5 11.9,25.2 3.2,32.5 0.9,34.6 0,35.3 0,28.5 11.9,18.4 "/>
</svg>
