<?xml version="1.0" encoding="utf-8"?>
<!-- Generator: Adobe Illustrator 24.1.3, SVG Export Plug-In . SVG Version: 6.00 Build 0)  -->
<svg version="1.1" id="Laag_1" xmlns="http://www.w3.org/2000/svg" xmlns:xlink="http://www.w3.org/1999/xlink" x="0px" y="0px"
	 viewBox="0 0 200 100" style="enable-background:new 0 0 200 100;" xml:space="preserve">
<style type="text/css">
	.st0{clip-path:url(#SVGID_2_);}
	.st1{clip-path:url(#SVGID_4_);}
	.st2{clip-path:url(#SVGID_6_);}
	.st3{clip-path:url(#SVGID_8_);}
	.st4{clip-path:url(#SVGID_10_);}
	.st5{clip-path:url(#SVGID_12_);}
	.st6{clip-path:url(#SVGID_14_);}
	.st7{clip-path:url(#SVGID_16_);}
	.st8{clip-path:url(#SVGID_18_);}
	.st9{clip-path:url(#SVGID_20_);}
	.st10{clip-path:url(#SVGID_22_);}
	.st11{clip-path:url(#SVGID_24_);}
	.st12{clip-path:url(#SVGID_26_);}
	.st13{clip-path:url(#SVGID_28_);}
	.st14{clip-path:url(#SVGID_30_);}
	.st15{clip-path:url(#SVGID_32_);}
	.st16{clip-path:url(#SVGID_34_);}
	.st17{clip-path:url(#SVGID_36_);}
	.st18{clip-path:url(#SVGID_38_);}
	.st19{fill:#1E1E1C;}
</style>
<g>
	<g>
		<g>
			<defs>
				<polygon id="SVGID_1_" points="25.2,15.6 25.1,65.3 57.6,65.3 57.6,55.5 36.9,55.5 36.9,15.6 				"/>
			</defs>
			<clipPath id="SVGID_2_">
				<use xlink:href="#SVGID_1_"  style="overflow:visible;"/>
			</clipPath>
			<g class="st0">
				<g>
					<g>
						<defs>
							<rect id="SVGID_3_" x="-52.1" y="-141.3" width="364.4" height="517.7"/>
						</defs>
						<clipPath id="SVGID_4_">
							<use xlink:href="#SVGID_3_"  style="overflow:visible;"/>
						</clipPath>
						<g class="st1">
							<g>
								<defs>
									<rect id="SVGID_5_" x="-52.1" y="-141.3" width="364.4" height="517.7"/>
								</defs>
								<clipPath id="SVGID_6_">
									<use xlink:href="#SVGID_5_"  style="overflow:visible;"/>
								</clipPath>
								<g class="st2">
									
										<image style="overflow:visible;enable-background:new    ;" width="702" height="995" xlink:href="D:\cmd\Lyvup\587CFF4E.jpg"  transform="matrix(0.52 0 0 0.5199 -52.3782 -141.1137)">
									</image>
								</g>
							</g>
						</g>
					</g>
				</g>
			</g>
		</g>
	</g>
	<g>
		<g>
			<defs>
				<polygon id="SVGID_7_" points="90.4,29.7 83.6,50.1 83.4,50.1 76.4,29.7 65.9,29.7 79.5,65.3 87.4,65.3 101.1,29.7 				"/>
			</defs>
			<clipPath id="SVGID_8_">
				<use xlink:href="#SVGID_7_"  style="overflow:visible;"/>
			</clipPath>
			<g class="st3">
				<g>
					<g>
						<defs>
							<rect id="SVGID_9_" x="27.1" y="-275.7" width="364.4" height="503.1"/>
						</defs>
						<clipPath id="SVGID_10_">
							<use xlink:href="#SVGID_9_"  style="overflow:visible;"/>
						</clipPath>
						<g class="st4">
							<g>
								<defs>
									<rect id="SVGID_11_" x="59" y="-64" width="65.9" height="136.9"/>
								</defs>
								<clipPath id="SVGID_12_">
									<use xlink:href="#SVGID_11_"  style="overflow:visible;"/>
								</clipPath>
								<g class="st5">
									<g>
										<defs>
											<rect id="SVGID_13_" x="27.1" y="-275.7" width="364.4" height="503.1"/>
										</defs>
										<clipPath id="SVGID_14_">
											<use xlink:href="#SVGID_13_"  style="overflow:visible;"/>
										</clipPath>
										<g class="st6">
											
												<image style="overflow:visible;enable-background:new    ;" width="700" height="966" xlink:href="D:\cmd\Lyvup\587CFF52.jpg"  transform="matrix(0.5208 0 0 0.5207 27.027 -275.6407)">
											</image>
										</g>
									</g>
								</g>
							</g>
						</g>
					</g>
				</g>
			</g>
		</g>
	</g>
	<g>
		<g>
			<defs>
				<path id="SVGID_15_" d="M116.5,29.7v23.2c0,2.9-2.1,4.7-5.4,4.7c-3.4,0-5.3-2-5.3-4.6V29.7H94v24.8c0,7.4,7.4,11.4,13.5,11.4
					c3.8,0,9.1-1.2,10.4-7.9l1.4,7.2h8.7V29.7H116.5z"/>
			</defs>
			<clipPath id="SVGID_16_">
				<use xlink:href="#SVGID_15_"  style="overflow:visible;"/>
			</clipPath>
			<g class="st7">
				<g>
					<g>
						<defs>
							<rect id="SVGID_17_" x="-196.1" y="-54.3" width="379.6" height="521.8"/>
						</defs>
						<clipPath id="SVGID_18_">
							<use xlink:href="#SVGID_17_"  style="overflow:visible;"/>
						</clipPath>
						<g class="st8">
							<g>
								<defs>
									<rect id="SVGID_19_" x="89" y="11.7" width="65.9" height="136.9"/>
								</defs>
								<clipPath id="SVGID_20_">
									<use xlink:href="#SVGID_19_"  style="overflow:visible;"/>
								</clipPath>
								<g class="st9">
									<g>
										<defs>
											<rect id="SVGID_21_" x="-196.1" y="-54.3" width="379.6" height="521.8"/>
										</defs>
										<clipPath id="SVGID_22_">
											<use xlink:href="#SVGID_21_"  style="overflow:visible;"/>
										</clipPath>
										<g transform="matrix(1 0 0 1 1.525879e-05 0)" class="st10">
											
												<image style="overflow:visible;enable-background:new    ;" width="730" height="1002" xlink:href="D:\cmd\Lyvup\587CFF55.jpg"  transform="matrix(0.5206 0 0 0.5205 -196.3485 -54.0969)">
											</image>
										</g>
									</g>
								</g>
							</g>
						</g>
					</g>
				</g>
			</g>
		</g>
	</g>
	<g>
		<g>
			<defs>
				<path id="SVGID_23_" d="M132.1,47.4c0-5.5,2.1-10,6.6-10c3.8,0,6.7,3.6,6.7,10c0,7.1-3,10.1-6.7,10.1
					C134.2,57.5,132.1,52.5,132.1,47.4 M132.2,34.3v-4.6h-11.7v50.4h11.7V60.4c2.1,3.5,5.8,5.5,9.6,5.5c8,0,14.6-5.4,14.6-18.7
					c0-12.5-5.7-18.3-13.4-18.3C138.8,29,134.6,30.9,132.2,34.3"/>
			</defs>
			<clipPath id="SVGID_24_">
				<use xlink:href="#SVGID_23_"  style="overflow:visible;"/>
			</clipPath>
			<g class="st11">
				<g>
					<g>
						<defs>
							<rect id="SVGID_25_" x="82.2" y="-15.6" width="364.4" height="517.7"/>
						</defs>
						<clipPath id="SVGID_26_">
							<use xlink:href="#SVGID_25_"  style="overflow:visible;"/>
						</clipPath>
						<g class="st12">
							<g>
								<defs>
									<rect id="SVGID_27_" x="109.6" y="7.9" width="65.9" height="136.9"/>
								</defs>
								<clipPath id="SVGID_28_">
									<use xlink:href="#SVGID_27_"  style="overflow:visible;"/>
								</clipPath>
								<g class="st13">
									<g>
										<defs>
											<rect id="SVGID_29_" x="82.2" y="-15.6" width="364.4" height="517.7"/>
										</defs>
										<clipPath id="SVGID_30_">
											<use xlink:href="#SVGID_29_"  style="overflow:visible;"/>
										</clipPath>
										<g class="st14">
											
												<image style="overflow:visible;enable-background:new    ;" width="700" height="995" xlink:href="D:\cmd\Lyvup\587CFF56.jpg"  transform="matrix(0.5205 0 0 0.5204 82.202 -15.5801)">
											</image>
										</g>
									</g>
								</g>
							</g>
						</g>
					</g>
				</g>
			</g>
		</g>
	</g>
	<g>
		<g>
			<defs>
				<path id="SVGID_31_" d="M68.9,29.7l-7.8,22.8l-7.6-22.8H41.9l13.8,36.2l-0.4,1.4c-0.3,0.8-0.8,3.9-7.4,3.4l-3.4-0.2v8
					c0,0,2,1.5,7.2,1.5c5.8,0,10.3-2.3,14.5-13.2l14.1-37.1L68.9,29.7L68.9,29.7z"/>
			</defs>
			<clipPath id="SVGID_32_">
				<use xlink:href="#SVGID_31_"  style="overflow:visible;"/>
			</clipPath>
			<g class="st15">
				<g>
					<g>
						<defs>
							<rect id="SVGID_33_" x="-277.4" y="14.5" width="382" height="419"/>
						</defs>
						<clipPath id="SVGID_34_">
							<use xlink:href="#SVGID_33_"  style="overflow:visible;"/>
						</clipPath>
						<g class="st16">
							<g>
								<defs>
									<rect id="SVGID_35_" x="28.2" y="22" width="65.9" height="146.7"/>
								</defs>
								<clipPath id="SVGID_36_">
									<use xlink:href="#SVGID_35_"  style="overflow:visible;"/>
								</clipPath>
								<g class="st17">
									<g>
										<defs>
											<rect id="SVGID_37_" x="-277.4" y="14.5" width="382" height="419"/>
										</defs>
										<clipPath id="SVGID_38_">
											<use xlink:href="#SVGID_37_"  style="overflow:visible;"/>
										</clipPath>
										<g class="st18">
											
												<image style="overflow:visible;enable-background:new    ;" width="734" height="805" xlink:href="D:\cmd\Lyvup\587CFF54.jpg"  transform="matrix(0.5203 0 0 0.5206 -277.3023 14.4739)">
											</image>
										</g>
									</g>
								</g>
							</g>
						</g>
					</g>
				</g>
			</g>
		</g>
	</g>
</g>
<g>
	<path class="st19" d="M175.6,48.5C175.7,48.5,175.7,48.5,175.6,48.5C175.7,48.4,175.7,48.4,175.6,48.5
		C175.6,48.4,175.6,48.4,175.6,48.5L175.6,48.5"/>
	<path class="st19" d="M177.1,50.6c0.4,0,0.7-0.3,0.7-0.7s-0.3-0.7-0.7-0.7s-0.7,0.3-0.7,0.7C176.5,50.3,176.8,50.6,177.1,50.6"/>
	<path class="st19" d="M178.6,51.5C178.6,51.5,178.6,51.4,178.6,51.5C178.6,51.4,178.6,51.4,178.6,51.5
		C178.6,51.4,178.6,51.4,178.6,51.5C178.6,51.4,178.6,51.5,178.6,51.5"/>
	<path class="st19" d="M172.7,48.5L172.7,48.5C172.8,48.4,172.7,48.4,172.7,48.5C172.7,48.4,172.6,48.4,172.7,48.5
		C172.6,48.5,172.7,48.5,172.7,48.5"/>
	<path class="st19" d="M174.2,50.9c0.5,0,1-0.4,1-1c0-0.5-0.4-1-1-1s-1,0.4-1,1S173.6,50.9,174.2,50.9"/>
	<path class="st19" d="M175.6,52.7c0.7,0,1.3-0.6,1.3-1.3s-0.6-1.3-1.3-1.3s-1.3,0.6-1.3,1.3C174.3,52.1,174.9,52.7,175.6,52.7"/>
	<path class="st19" d="M177.1,53.8c0.5,0,0.9-0.4,0.9-0.9s-0.4-0.9-0.9-0.9s-0.9,0.4-0.9,0.9S176.6,53.8,177.1,53.8"/>
	<path class="st19" d="M178.6,54.4L178.6,54.4L178.6,54.4L178.6,54.4L178.6,54.4"/>
	<path class="st19" d="M169.7,48.5C169.7,48.5,169.8,48.5,169.7,48.5C169.8,48.4,169.7,48.4,169.7,48.5
		C169.7,48.4,169.7,48.4,169.7,48.5L169.7,48.5"/>
	<path class="st19" d="M171.2,50.9c0.5,0,1-0.4,1-1c0-0.5-0.4-1-1-1c-0.5,0-1,0.4-1,1S170.7,50.9,171.2,50.9"/>
	<path class="st19" d="M172.7,52.7c0.7,0,1.3-0.6,1.3-1.3s-0.6-1.3-1.3-1.3s-1.3,0.6-1.3,1.3C171.4,52.1,172,52.7,172.7,52.7"/>
	<path class="st19" d="M174.2,54.2c0.7,0,1.3-0.6,1.3-1.3s-0.6-1.3-1.3-1.3s-1.3,0.6-1.3,1.3C172.9,53.6,173.4,54.2,174.2,54.2"/>
	<path class="st19" d="M175.6,55.7c0.7,0,1.3-0.6,1.3-1.3s-0.6-1.3-1.3-1.3s-1.3,0.6-1.3,1.3C174.3,55.1,174.9,55.7,175.6,55.7"/>
	<path class="st19" d="M177.1,56.8c0.5,0,0.9-0.4,0.9-0.9s-0.4-0.9-0.9-0.9s-0.9,0.4-0.9,0.9C176.2,56.4,176.6,56.8,177.1,56.8"/>
	<path class="st19" d="M178.6,57.4L178.6,57.4C178.6,57.3,178.6,57.3,178.6,57.4C178.6,57.3,178.6,57.3,178.6,57.4L178.6,57.4"/>
	<path class="st19" d="M166.8,48.5L166.8,48.5C166.8,48.4,166.8,48.4,166.8,48.5C166.7,48.4,166.7,48.4,166.8,48.5
		C166.7,48.5,166.7,48.5,166.8,48.5"/>
	<path class="st19" d="M168.2,50.9c0.5,0,1-0.4,1-1c0-0.5-0.4-1-1-1c-0.5,0-1,0.4-1,1C167.3,50.5,167.7,50.9,168.2,50.9"/>
	<path class="st19" d="M169.7,52.7c0.7,0,1.3-0.6,1.3-1.3s-0.6-1.3-1.3-1.3s-1.3,0.6-1.3,1.3C168.4,52.1,169,52.7,169.7,52.7"/>
	<path class="st19" d="M171.2,54.2c0.7,0,1.3-0.6,1.3-1.3s-0.6-1.3-1.3-1.3s-1.3,0.6-1.3,1.3C169.9,53.6,170.5,54.2,171.2,54.2"/>
	<path class="st19" d="M172.7,55.7c0.7,0,1.3-0.6,1.3-1.3s-0.6-1.3-1.3-1.3s-1.3,0.6-1.3,1.3C171.4,55.1,172,55.7,172.7,55.7"/>
	<path class="st19" d="M174.2,57.2c0.7,0,1.3-0.6,1.3-1.3s-0.6-1.3-1.3-1.3s-1.3,0.6-1.3,1.3C172.9,56.6,173.4,57.2,174.2,57.2"/>
	<path class="st19" d="M175.6,58.7c0.7,0,1.3-0.6,1.3-1.3s-0.6-1.3-1.3-1.3s-1.3,0.6-1.3,1.3C174.3,58.1,174.9,58.7,175.6,58.7"/>
	<path class="st19" d="M177.1,59.8c0.5,0,0.9-0.4,0.9-0.9s-0.4-0.9-0.9-0.9s-0.9,0.4-0.9,0.9C176.2,59.3,176.6,59.8,177.1,59.8"/>
	<path class="st19" d="M178.6,60.4C178.6,60.4,178.6,60.3,178.6,60.4C178.6,60.3,178.6,60.3,178.6,60.4
		C178.6,60.3,178.6,60.3,178.6,60.4C178.6,60.3,178.6,60.4,178.6,60.4"/>
	<path class="st19" d="M165.3,50L165.3,50C165.3,49.9,165.3,49.9,165.3,50C165.3,49.9,165.3,49.9,165.3,50L165.3,50"/>
	<path class="st19" d="M166.8,52.1c0.4,0,0.7-0.3,0.7-0.7s-0.3-0.7-0.7-0.7s-0.7,0.3-0.7,0.7S166.4,52.1,166.8,52.1"/>
	<path class="st19" d="M168.2,54.2c0.7,0,1.3-0.6,1.3-1.3s-0.6-1.3-1.3-1.3s-1.3,0.6-1.3,1.3C166.9,53.6,167.5,54.2,168.2,54.2"/>
	<path class="st19" d="M169.7,55.7c0.7,0,1.3-0.6,1.3-1.3s-0.6-1.3-1.3-1.3s-1.3,0.6-1.3,1.3C168.4,55.1,169,55.7,169.7,55.7"/>
	<path class="st19" d="M171.2,57.2c0.7,0,1.3-0.6,1.3-1.3s-0.6-1.3-1.3-1.3s-1.3,0.6-1.3,1.3C169.9,56.6,170.5,57.2,171.2,57.2"/>
	<path class="st19" d="M172.7,58.7c0.7,0,1.3-0.6,1.3-1.3s-0.6-1.3-1.3-1.3s-1.3,0.6-1.3,1.3C171.4,58.1,172,58.7,172.7,58.7"/>
	<path class="st19" d="M174.2,60.1c0.7,0,1.3-0.6,1.3-1.3s-0.6-1.3-1.3-1.3s-1.3,0.6-1.3,1.3C172.9,59.6,173.4,60.1,174.2,60.1"/>
	<path class="st19" d="M175.6,61.6c0.7,0,1.3-0.6,1.3-1.3s-0.6-1.3-1.3-1.3s-1.3,0.6-1.3,1.3S174.9,61.6,175.6,61.6"/>
	<path class="st19" d="M177.1,62.7c0.5,0,0.9-0.4,0.9-0.9s-0.4-0.9-0.9-0.9s-0.9,0.4-0.9,0.9C176.2,62.3,176.6,62.7,177.1,62.7"/>
	<path class="st19" d="M178.6,63.3C178.6,63.3,178.7,63.3,178.6,63.3C178.7,63.3,178.6,63.2,178.6,63.3
		C178.6,63.2,178.6,63.3,178.6,63.3L178.6,63.3"/>
	<path class="st19" d="M165.3,52.9L165.3,52.9L165.3,52.9L165.3,52.9L165.3,52.9"/>
	<path class="st19" d="M166.8,55.1c0.4,0,0.7-0.3,0.7-0.7s-0.3-0.7-0.7-0.7s-0.7,0.3-0.7,0.7S166.4,55.1,166.8,55.1"/>
	<path class="st19" d="M168.2,57.2c0.7,0,1.3-0.6,1.3-1.3s-0.6-1.3-1.3-1.3s-1.3,0.6-1.3,1.3C166.9,56.6,167.5,57.2,168.2,57.2"/>
	<path class="st19" d="M169.7,58.7c0.7,0,1.3-0.6,1.3-1.3s-0.6-1.3-1.3-1.3s-1.3,0.6-1.3,1.3C168.4,58.1,169,58.7,169.7,58.7"/>
	<path class="st19" d="M171.2,60.1c0.7,0,1.3-0.6,1.3-1.3s-0.6-1.3-1.3-1.3s-1.3,0.6-1.3,1.3C169.9,59.6,170.5,60.1,171.2,60.1"/>
	<path class="st19" d="M172.7,61.6c0.7,0,1.3-0.6,1.3-1.3s-0.6-1.3-1.3-1.3s-1.3,0.6-1.3,1.3S172,61.6,172.7,61.6"/>
	<path class="st19" d="M174.2,63.1c0.7,0,1.3-0.6,1.3-1.3s-0.6-1.3-1.3-1.3s-1.3,0.6-1.3,1.3S173.4,63.1,174.2,63.1"/>
	<path class="st19" d="M175.6,64.6c0.7,0,1.3-0.6,1.3-1.3s-0.6-1.3-1.3-1.3s-1.3,0.6-1.3,1.3S174.9,64.6,175.6,64.6"/>
	<path class="st19" d="M177.1,65.7c0.5,0,0.9-0.4,0.9-0.9s-0.4-0.9-0.9-0.9s-0.9,0.4-0.9,0.9C176.2,65.3,176.6,65.7,177.1,65.7"/>
	<path class="st19" d="M178.6,66.3L178.6,66.3C178.6,66.2,178.6,66.2,178.6,66.3C178.6,66.2,178.6,66.2,178.6,66.3L178.6,66.3"/>
	<path class="st19" d="M165.3,55.9L165.3,55.9L165.3,55.9L165.3,55.9L165.3,55.9"/>
	<path class="st19" d="M166.8,58.1c0.4,0,0.7-0.3,0.7-0.7s-0.3-0.7-0.7-0.7s-0.7,0.3-0.7,0.7C166.1,57.7,166.4,58.1,166.8,58.1"/>
	<path class="st19" d="M168.2,60.1c0.7,0,1.3-0.6,1.3-1.3s-0.6-1.3-1.3-1.3s-1.3,0.6-1.3,1.3C166.9,59.6,167.5,60.1,168.2,60.1"/>
	<path class="st19" d="M169.7,61.6c0.7,0,1.3-0.6,1.3-1.3s-0.6-1.3-1.3-1.3s-1.3,0.6-1.3,1.3S169,61.6,169.7,61.6"/>
	<path class="st19" d="M171.2,63.1c0.7,0,1.3-0.6,1.3-1.3s-0.6-1.3-1.3-1.3s-1.3,0.6-1.3,1.3S170.5,63.1,171.2,63.1"/>
	<path class="st19" d="M172.7,64.6c0.7,0,1.3-0.6,1.3-1.3s-0.6-1.3-1.3-1.3s-1.3,0.6-1.3,1.3S172,64.6,172.7,64.6"/>
	<path class="st19" d="M174.2,66.1c0.7,0,1.3-0.6,1.3-1.3c0-0.7-0.6-1.3-1.3-1.3s-1.3,0.6-1.3,1.3C172.9,65.5,173.4,66.1,174.2,66.1
		"/>
	<path class="st19" d="M175.6,67.6c0.7,0,1.3-0.6,1.3-1.3c0-0.7-0.6-1.3-1.3-1.3s-1.3,0.6-1.3,1.3S174.9,67.6,175.6,67.6"/>
	<path class="st19" d="M177.1,68.7c0.5,0,0.9-0.4,0.9-0.9s-0.4-0.9-0.9-0.9s-0.9,0.4-0.9,0.9C176.2,68.2,176.6,68.7,177.1,68.7"/>
	<path class="st19" d="M178.6,69.2C178.6,69.2,178.7,69.2,178.6,69.2C178.7,69.2,178.6,69.2,178.6,69.2L178.6,69.2L178.6,69.2"/>
	<path class="st19" d="M165.3,59.1c0.2,0,0.3-0.1,0.3-0.3s-0.1-0.3-0.3-0.3s-0.3,0.1-0.3,0.3S165.1,59.1,165.3,59.1"/>
	<path class="st19" d="M166.8,61.6c0.7,0,1.3-0.6,1.3-1.3s-0.6-1.3-1.3-1.3s-1.3,0.6-1.3,1.3S166.1,61.6,166.8,61.6"/>
	<path class="st19" d="M168.2,63.1c0.7,0,1.3-0.6,1.3-1.3s-0.6-1.3-1.3-1.3s-1.3,0.6-1.3,1.3S167.5,63.1,168.2,63.1"/>
	<path class="st19" d="M169.7,64.6c0.7,0,1.3-0.6,1.3-1.3s-0.6-1.3-1.3-1.3s-1.3,0.6-1.3,1.3S169,64.6,169.7,64.6"/>
	<path class="st19" d="M171.2,66.1c0.7,0,1.3-0.6,1.3-1.3c0-0.7-0.6-1.3-1.3-1.3s-1.3,0.6-1.3,1.3C169.9,65.5,170.5,66.1,171.2,66.1
		"/>
	<path class="st19" d="M172.7,67.6c0.7,0,1.3-0.6,1.3-1.3c0-0.7-0.6-1.3-1.3-1.3s-1.3,0.6-1.3,1.3S172,67.6,172.7,67.6"/>
	<path class="st19" d="M174.2,69c0.7,0,1.3-0.6,1.3-1.3c0-0.7-0.6-1.3-1.3-1.3s-1.3,0.6-1.3,1.3S173.4,69,174.2,69"/>
	<path class="st19" d="M175.6,70.5c0.7,0,1.3-0.6,1.3-1.3c0-0.7-0.6-1.3-1.3-1.3s-1.3,0.6-1.3,1.3S174.9,70.5,175.6,70.5"/>
	<path class="st19" d="M177.1,71.6c0.5,0,0.9-0.4,0.9-0.9s-0.4-0.9-0.9-0.9s-0.9,0.4-0.9,0.9C176.2,71.2,176.6,71.6,177.1,71.6"/>
	<path class="st19" d="M178.6,72.2L178.6,72.2C178.6,72.2,178.6,72.1,178.6,72.2C178.6,72.1,178.6,72.2,178.6,72.2L178.6,72.2"/>
	<path class="st19" d="M162.3,59.1c0.2,0,0.3-0.1,0.3-0.3s-0.1-0.3-0.3-0.3s-0.3,0.1-0.3,0.3S162.1,59.1,162.3,59.1"/>
	<path class="st19" d="M163.8,61.5c0.7,0,1.2-0.5,1.2-1.2s-0.5-1.2-1.2-1.2s-1.2,0.5-1.2,1.2S163.1,61.5,163.8,61.5"/>
	<path class="st19" d="M165.3,63.1c0.7,0,1.3-0.6,1.3-1.3s-0.6-1.3-1.3-1.3s-1.3,0.6-1.3,1.3S164.6,63.1,165.3,63.1"/>
	<path class="st19" d="M166.8,64.6c0.7,0,1.3-0.6,1.3-1.3s-0.6-1.3-1.3-1.3s-1.3,0.6-1.3,1.3C165.4,64,166,64.6,166.8,64.6"/>
	<path class="st19" d="M168.2,66.1c0.7,0,1.3-0.6,1.3-1.3c0-0.7-0.6-1.3-1.3-1.3s-1.3,0.6-1.3,1.3C166.9,65.5,167.5,66.1,168.2,66.1
		"/>
	<path class="st19" d="M169.7,67.6c0.7,0,1.3-0.6,1.3-1.3c0-0.7-0.6-1.3-1.3-1.3s-1.3,0.6-1.3,1.3S169,67.6,169.7,67.6"/>
	<path class="st19" d="M171.2,69c0.7,0,1.3-0.6,1.3-1.3c0-0.7-0.6-1.3-1.3-1.3s-1.3,0.6-1.3,1.3S170.5,69,171.2,69"/>
	<path class="st19" d="M172.7,70.5c0.7,0,1.3-0.6,1.3-1.3c0-0.7-0.6-1.3-1.3-1.3s-1.3,0.6-1.3,1.3S172,70.5,172.7,70.5"/>
	<path class="st19" d="M174.2,72c0.7,0,1.3-0.6,1.3-1.3c0-0.7-0.6-1.3-1.3-1.3s-1.3,0.6-1.3,1.3S173.4,72,174.2,72"/>
	<path class="st19" d="M175.6,73.5c0.7,0,1.3-0.6,1.3-1.3c0-0.7-0.6-1.3-1.3-1.3s-1.3,0.6-1.3,1.3S174.9,73.5,175.6,73.5"/>
	<path class="st19" d="M177.1,74.6c0.5,0,0.9-0.4,0.9-0.9s-0.4-0.9-0.9-0.9s-0.9,0.4-0.9,0.9C176.2,74.2,176.6,74.6,177.1,74.6"/>
	<path class="st19" d="M178.6,75.2C178.6,75.2,178.7,75.2,178.6,75.2C178.7,75.1,178.6,75.1,178.6,75.2
		C178.6,75.1,178.6,75.1,178.6,75.2L178.6,75.2"/>
	<path class="st19" d="M159.3,59.1c0.2,0,0.3-0.1,0.3-0.3s-0.1-0.3-0.3-0.3s-0.3,0.1-0.3,0.3C159.1,59,159.2,59.1,159.3,59.1"/>
	<path class="st19" d="M160.8,61.5c0.7,0,1.2-0.5,1.2-1.2s-0.5-1.2-1.2-1.2s-1.2,0.5-1.2,1.2S160.2,61.5,160.8,61.5"/>
	<path class="st19" d="M162.3,63.1c0.7,0,1.3-0.6,1.3-1.3s-0.6-1.3-1.3-1.3s-1.3,0.6-1.3,1.3S161.6,63.1,162.3,63.1"/>
	<path class="st19" d="M163.8,64.6c0.7,0,1.3-0.6,1.3-1.3s-0.6-1.3-1.3-1.3s-1.3,0.6-1.3,1.3S163.1,64.6,163.8,64.6"/>
	<path class="st19" d="M165.3,66.1c0.7,0,1.3-0.6,1.3-1.3c0-0.7-0.6-1.3-1.3-1.3s-1.3,0.6-1.3,1.3C164,65.5,164.6,66.1,165.3,66.1"
		/>
	<path class="st19" d="M166.8,67.6c0.7,0,1.3-0.6,1.3-1.3c0-0.7-0.6-1.3-1.3-1.3s-1.3,0.6-1.3,1.3C165.4,67,166,67.6,166.8,67.6"/>
	<path class="st19" d="M168.2,69c0.7,0,1.3-0.6,1.3-1.3c0-0.7-0.6-1.3-1.3-1.3s-1.3,0.6-1.3,1.3S167.5,69,168.2,69"/>
	<path class="st19" d="M169.7,70.5c0.7,0,1.3-0.6,1.3-1.3c0-0.7-0.6-1.3-1.3-1.3s-1.3,0.6-1.3,1.3S169,70.5,169.7,70.5"/>
	<path class="st19" d="M171.2,72c0.7,0,1.3-0.6,1.3-1.3c0-0.7-0.6-1.3-1.3-1.3s-1.3,0.6-1.3,1.3S170.5,72,171.2,72"/>
	<path class="st19" d="M172.7,73.5c0.7,0,1.3-0.6,1.3-1.3c0-0.7-0.6-1.3-1.3-1.3s-1.3,0.6-1.3,1.3S172,73.5,172.7,73.5"/>
	<path class="st19" d="M174.2,75c0.7,0,1.3-0.6,1.3-1.3c0-0.7-0.6-1.3-1.3-1.3s-1.3,0.6-1.3,1.3S173.4,75,174.2,75"/>
	<path class="st19" d="M175.6,76.4c0.7,0,1.3-0.6,1.3-1.3c0-0.7-0.6-1.3-1.3-1.3s-1.3,0.6-1.3,1.3C174.3,75.9,174.9,76.4,175.6,76.4
		"/>
	<path class="st19" d="M177.1,77.5c0.5,0,0.9-0.4,0.9-0.9s-0.4-0.9-0.9-0.9s-0.9,0.4-0.9,0.9S176.6,77.5,177.1,77.5"/>
	<path class="st19" d="M178.6,78.1L178.6,78.1L178.6,78.1L178.6,78.1L178.6,78.1"/>
	<path class="st19" d="M156.4,58.9L156.4,58.9C156.4,58.8,156.4,58.8,156.4,58.9C156.4,58.8,156.3,58.8,156.4,58.9
		C156.3,58.9,156.4,58.9,156.4,58.9"/>
	<path class="st19" d="M157.9,61.4c0.6,0,1.1-0.5,1.1-1.1s-0.5-1.1-1.1-1.1s-1.1,0.5-1.1,1.1C156.7,60.9,157.2,61.4,157.9,61.4"/>
	<path class="st19" d="M159.3,63.1c0.7,0,1.3-0.6,1.3-1.3s-0.6-1.3-1.3-1.3s-1.3,0.6-1.3,1.3S158.6,63.1,159.3,63.1"/>
	<path class="st19" d="M160.8,64.6c0.7,0,1.3-0.6,1.3-1.3s-0.6-1.3-1.3-1.3s-1.3,0.6-1.3,1.3S160.1,64.6,160.8,64.6"/>
	<path class="st19" d="M162.3,66.1c0.7,0,1.3-0.6,1.3-1.3c0-0.7-0.6-1.3-1.3-1.3s-1.3,0.6-1.3,1.3C161,65.5,161.6,66.1,162.3,66.1"
		/>
	<path class="st19" d="M163.8,67.6c0.7,0,1.3-0.6,1.3-1.3c0-0.7-0.6-1.3-1.3-1.3s-1.3,0.6-1.3,1.3S163.1,67.6,163.8,67.6"/>
	<path class="st19" d="M165.3,69c0.7,0,1.3-0.6,1.3-1.3c0-0.7-0.6-1.3-1.3-1.3S164,67,164,67.7S164.6,69,165.3,69"/>
	<path class="st19" d="M166.8,70.5c0.7,0,1.3-0.6,1.3-1.3c0-0.7-0.6-1.3-1.3-1.3s-1.3,0.6-1.3,1.3C165.4,69.9,166,70.5,166.8,70.5"
		/>
	<path class="st19" d="M168.2,72c0.7,0,1.3-0.6,1.3-1.3c0-0.7-0.6-1.3-1.3-1.3s-1.3,0.6-1.3,1.3S167.5,72,168.2,72"/>
	<path class="st19" d="M169.7,73.5c0.7,0,1.3-0.6,1.3-1.3c0-0.7-0.6-1.3-1.3-1.3s-1.3,0.6-1.3,1.3S169,73.5,169.7,73.5"/>
	<path class="st19" d="M171.2,75c0.7,0,1.3-0.6,1.3-1.3c0-0.7-0.6-1.3-1.3-1.3s-1.3,0.6-1.3,1.3S170.5,75,171.2,75"/>
	<path class="st19" d="M172.7,76.4c0.7,0,1.3-0.6,1.3-1.3c0-0.7-0.6-1.3-1.3-1.3s-1.3,0.6-1.3,1.3C171.4,75.9,172,76.4,172.7,76.4"
		/>
	<path class="st19" d="M174.2,77.9c0.7,0,1.3-0.6,1.3-1.3c0-0.7-0.6-1.3-1.3-1.3s-1.3,0.6-1.3,1.3S173.4,77.9,174.2,77.9"/>
	<path class="st19" d="M175.6,79.4c0.7,0,1.3-0.6,1.3-1.3c0-0.7-0.6-1.3-1.3-1.3s-1.3,0.6-1.3,1.3S174.9,79.4,175.6,79.4"/>
	<path class="st19" d="M177.1,80.3c0.4,0,0.7-0.3,0.7-0.7c0-0.4-0.3-0.7-0.7-0.7s-0.7,0.3-0.7,0.7C176.4,80,176.8,80.3,177.1,80.3"
		/>
	<path class="st19" d="M156.4,62.1c0.2,0,0.3-0.1,0.3-0.3s-0.1-0.3-0.3-0.3s-0.3,0.1-0.3,0.3C156.1,62,156.2,62.1,156.4,62.1"/>
	<path class="st19" d="M157.9,64.5c0.7,0,1.2-0.5,1.2-1.2s-0.5-1.2-1.2-1.2s-1.2,0.5-1.2,1.2S157.2,64.5,157.9,64.5"/>
	<path class="st19" d="M159.3,66.1c0.7,0,1.3-0.6,1.3-1.3c0-0.7-0.6-1.3-1.3-1.3s-1.3,0.6-1.3,1.3C158,65.5,158.6,66.1,159.3,66.1"
		/>
	<path class="st19" d="M160.8,67.6c0.7,0,1.3-0.6,1.3-1.3c0-0.7-0.6-1.3-1.3-1.3s-1.3,0.6-1.3,1.3S160.1,67.6,160.8,67.6"/>
	<path class="st19" d="M162.3,69c0.7,0,1.3-0.6,1.3-1.3c0-0.7-0.6-1.3-1.3-1.3S161,67,161,67.7S161.6,69,162.3,69"/>
	<path class="st19" d="M163.8,70.5c0.7,0,1.3-0.6,1.3-1.3c0-0.7-0.6-1.3-1.3-1.3s-1.3,0.6-1.3,1.3S163.1,70.5,163.8,70.5"/>
	<path class="st19" d="M165.3,72c0.7,0,1.3-0.6,1.3-1.3c0-0.7-0.6-1.3-1.3-1.3S164,70,164,70.7S164.6,72,165.3,72"/>
	<path class="st19" d="M166.8,73.5c0.7,0,1.3-0.6,1.3-1.3c0-0.7-0.6-1.3-1.3-1.3s-1.3,0.6-1.3,1.3C165.4,72.9,166,73.5,166.8,73.5"
		/>
	<path class="st19" d="M168.2,75c0.7,0,1.3-0.6,1.3-1.3c0-0.7-0.6-1.3-1.3-1.3s-1.3,0.6-1.3,1.3S167.5,75,168.2,75"/>
	<path class="st19" d="M169.7,76.4c0.7,0,1.3-0.6,1.3-1.3c0-0.7-0.6-1.3-1.3-1.3s-1.3,0.6-1.3,1.3C168.4,75.9,169,76.4,169.7,76.4"
		/>
	<path class="st19" d="M171.2,77.9c0.7,0,1.3-0.6,1.3-1.3c0-0.7-0.6-1.3-1.3-1.3s-1.3,0.6-1.3,1.3S170.5,77.9,171.2,77.9"/>
	<path class="st19" d="M172.7,79.4c0.7,0,1.3-0.6,1.3-1.3c0-0.7-0.6-1.3-1.3-1.3s-1.3,0.6-1.3,1.3S172,79.4,172.7,79.4"/>
	<path class="st19" d="M174.2,80.6c0.5,0,1-0.4,1-1c0-0.5-0.4-1-1-1c-0.5,0-1,0.4-1,1C173.2,80.1,173.6,80.6,174.2,80.6"/>
	<path class="st19" d="M175.6,81.1C175.7,81.1,175.7,81.1,175.6,81.1c0.1-0.1,0-0.2,0-0.2C175.6,81,175.6,81,175.6,81.1L175.6,81.1"
		/>
	<path class="st19" d="M156.4,65.1c0.2,0,0.3-0.1,0.3-0.3c0-0.2-0.1-0.3-0.3-0.3s-0.3,0.1-0.3,0.3C156.1,64.9,156.2,65.1,156.4,65.1
		"/>
	<path class="st19" d="M157.9,67.5c0.7,0,1.2-0.5,1.2-1.2s-0.5-1.2-1.2-1.2s-1.2,0.5-1.2,1.2C156.7,66.9,157.2,67.5,157.9,67.5"/>
	<path class="st19" d="M159.3,69c0.7,0,1.3-0.6,1.3-1.3c0-0.7-0.6-1.3-1.3-1.3S158,67,158,67.7S158.6,69,159.3,69"/>
	<path class="st19" d="M160.8,70.5c0.7,0,1.3-0.6,1.3-1.3c0-0.7-0.6-1.3-1.3-1.3s-1.3,0.6-1.3,1.3S160.1,70.5,160.8,70.5"/>
	<path class="st19" d="M162.3,72c0.7,0,1.3-0.6,1.3-1.3c0-0.7-0.6-1.3-1.3-1.3S161,70,161,70.7S161.6,72,162.3,72"/>
	<path class="st19" d="M163.8,73.5c0.7,0,1.3-0.6,1.3-1.3c0-0.7-0.6-1.3-1.3-1.3s-1.3,0.6-1.3,1.3S163.1,73.5,163.8,73.5"/>
	<path class="st19" d="M165.3,75c0.7,0,1.3-0.6,1.3-1.3c0-0.7-0.6-1.3-1.3-1.3S164,73,164,73.7S164.6,75,165.3,75"/>
	<path class="st19" d="M166.8,76.4c0.7,0,1.3-0.6,1.3-1.3c0-0.7-0.6-1.3-1.3-1.3s-1.3,0.6-1.3,1.3C165.4,75.9,166,76.4,166.8,76.4"
		/>
	<path class="st19" d="M168.2,77.9c0.7,0,1.3-0.6,1.3-1.3c0-0.7-0.6-1.3-1.3-1.3s-1.3,0.6-1.3,1.3S167.5,77.9,168.2,77.9"/>
	<path class="st19" d="M169.7,79.4c0.7,0,1.3-0.6,1.3-1.3c0-0.7-0.6-1.3-1.3-1.3s-1.3,0.6-1.3,1.3S169,79.4,169.7,79.4"/>
	<path class="st19" d="M171.2,80.6c0.6,0,1-0.4,1-1s-0.4-1-1-1s-1,0.4-1,1C170.2,80.1,170.6,80.6,171.2,80.6"/>
	<path class="st19" d="M172.7,81.1C172.7,81.1,172.8,81.1,172.7,81.1c0.1-0.1,0-0.2,0-0.2S172.6,81,172.7,81.1
		C172.6,81.1,172.6,81.1,172.7,81.1"/>
	<path class="st19" d="M156.4,68c0.2,0,0.3-0.1,0.3-0.3c0-0.2-0.1-0.3-0.3-0.3s-0.3,0.1-0.3,0.3C156.1,67.9,156.2,68,156.4,68"/>
	<path class="st19" d="M157.9,70.5c0.7,0,1.2-0.6,1.2-1.2c0-0.7-0.6-1.2-1.2-1.2c-0.7,0-1.2,0.6-1.2,1.2
		C156.6,69.9,157.2,70.5,157.9,70.5"/>
	<path class="st19" d="M159.3,72c0.7,0,1.3-0.6,1.3-1.3c0-0.7-0.6-1.3-1.3-1.3S158,70,158,70.7S158.6,72,159.3,72"/>
	<path class="st19" d="M160.8,73.5c0.7,0,1.3-0.6,1.3-1.3c0-0.7-0.6-1.3-1.3-1.3s-1.3,0.6-1.3,1.3S160.1,73.5,160.8,73.5"/>
	<path class="st19" d="M162.3,75c0.7,0,1.3-0.6,1.3-1.3c0-0.7-0.6-1.3-1.3-1.3S161,73,161,73.7S161.6,75,162.3,75"/>
	<path class="st19" d="M163.8,76.4c0.7,0,1.3-0.6,1.3-1.3c0-0.7-0.6-1.3-1.3-1.3s-1.3,0.6-1.3,1.3C162.5,75.9,163.1,76.4,163.8,76.4
		"/>
	<path class="st19" d="M165.3,77.9c0.7,0,1.3-0.6,1.3-1.3c0-0.7-0.6-1.3-1.3-1.3s-1.3,0.6-1.3,1.3S164.6,77.9,165.3,77.9"/>
	<path class="st19" d="M166.8,79.4c0.7,0,1.3-0.6,1.3-1.3c0-0.7-0.6-1.3-1.3-1.3s-1.3,0.6-1.3,1.3C165.4,78.8,166,79.4,166.8,79.4"
		/>
	<path class="st19" d="M168.2,80.6c0.5,0,1-0.4,1-1c0-0.5-0.4-1-1-1c-0.5,0-1,0.4-1,1C167.2,80.1,167.7,80.6,168.2,80.6"/>
	<path class="st19" d="M169.7,81.1C169.8,81.1,169.8,81.1,169.7,81.1c0.1-0.1,0-0.2,0-0.2C169.7,81,169.6,81,169.7,81.1
		C169.6,81.1,169.7,81.1,169.7,81.1"/>
	<polyline class="st19" points="153.4,67.7 153.4,67.7 153.4,67.7 153.4,67.7 153.4,67.7 	"/>
	<path class="st19" d="M154.9,69.8c0.3,0,0.6-0.3,0.6-0.6c0-0.3-0.3-0.6-0.6-0.6s-0.6,0.3-0.6,0.6C154.3,69.5,154.6,69.8,154.9,69.8
		"/>
	<path class="st19" d="M156.4,72c0.7,0,1.3-0.6,1.3-1.3c0-0.7-0.6-1.3-1.3-1.3s-1.3,0.6-1.3,1.3C155.1,71.4,155.7,72,156.4,72"/>
	<path class="st19" d="M157.9,73.5c0.7,0,1.3-0.6,1.3-1.3c0-0.7-0.6-1.3-1.3-1.3s-1.3,0.6-1.3,1.3C156.6,72.9,157.1,73.5,157.9,73.5
		"/>
	<path class="st19" d="M159.3,75c0.7,0,1.3-0.6,1.3-1.3c0-0.7-0.6-1.3-1.3-1.3S158,73,158,73.7S158.6,75,159.3,75"/>
	<path class="st19" d="M160.8,76.4c0.7,0,1.3-0.6,1.3-1.3c0-0.7-0.6-1.3-1.3-1.3s-1.3,0.6-1.3,1.3C159.5,75.9,160.1,76.4,160.8,76.4
		"/>
	<path class="st19" d="M162.3,77.9c0.7,0,1.3-0.6,1.3-1.3c0-0.7-0.6-1.3-1.3-1.3s-1.3,0.6-1.3,1.3S161.6,77.9,162.3,77.9"/>
	<path class="st19" d="M163.8,79.4c0.7,0,1.3-0.6,1.3-1.3c0-0.7-0.6-1.3-1.3-1.3s-1.3,0.6-1.3,1.3S163.1,79.4,163.8,79.4"/>
	<path class="st19" d="M165.3,80.6c0.6,0,1-0.4,1-1s-0.4-1-1-1s-1,0.4-1,1C164.3,80.1,164.7,80.6,165.3,80.6"/>
	<path class="st19" d="M166.8,81.1L166.8,81.1c0.1-0.1,0-0.2,0-0.2S166.7,81,166.8,81.1C166.7,81.1,166.7,81.1,166.8,81.1"/>
	<polyline class="st19" points="150.5,67.7 150.5,67.7 150.5,67.7 150.5,67.7 150.5,67.7 	"/>
	<path class="st19" d="M151.9,69.8c0.3,0,0.6-0.3,0.6-0.6c0-0.3-0.3-0.6-0.6-0.6s-0.6,0.3-0.6,0.6C151.4,69.5,151.6,69.8,151.9,69.8
		"/>
	<path class="st19" d="M153.4,72c0.7,0,1.3-0.6,1.3-1.3c0-0.7-0.6-1.3-1.3-1.3s-1.3,0.6-1.3,1.3C152.1,71.4,152.7,72,153.4,72"/>
	<path class="st19" d="M154.9,73.5c0.7,0,1.3-0.6,1.3-1.3c0-0.7-0.6-1.3-1.3-1.3s-1.3,0.6-1.3,1.3C153.6,72.9,154.2,73.5,154.9,73.5
		"/>
	<path class="st19" d="M156.4,75c0.7,0,1.3-0.6,1.3-1.3c0-0.7-0.6-1.3-1.3-1.3s-1.3,0.6-1.3,1.3C155.1,74.4,155.7,75,156.4,75"/>
	<path class="st19" d="M157.9,76.4c0.7,0,1.3-0.6,1.3-1.3c0-0.7-0.6-1.3-1.3-1.3s-1.3,0.6-1.3,1.3C156.6,75.9,157.1,76.4,157.9,76.4
		"/>
	<path class="st19" d="M159.3,77.9c0.7,0,1.3-0.6,1.3-1.3c0-0.7-0.6-1.3-1.3-1.3s-1.3,0.6-1.3,1.3S158.6,77.9,159.3,77.9"/>
	<path class="st19" d="M160.8,79.4c0.7,0,1.3-0.6,1.3-1.3c0-0.7-0.6-1.3-1.3-1.3s-1.3,0.6-1.3,1.3S160.1,79.4,160.8,79.4"/>
	<path class="st19" d="M162.3,80.6c0.5,0,1-0.4,1-1c0-0.5-0.4-1-1-1c-0.5,0-1,0.4-1,1C161.3,80.1,161.8,80.6,162.3,80.6"/>
	<path class="st19" d="M163.8,81.1C163.8,81.1,163.9,81.1,163.8,81.1c0.1-0.1,0-0.2,0-0.2C163.7,81,163.7,81,163.8,81.1
		C163.7,81.1,163.7,81.1,163.8,81.1"/>
	<polyline class="st19" points="147.5,67.7 147.5,67.7 147.5,67.7 147.5,67.7 147.5,67.7 	"/>
	<path class="st19" d="M149,69.8c0.3,0,0.6-0.3,0.6-0.6c0-0.3-0.3-0.6-0.6-0.6s-0.6,0.3-0.6,0.6S148.7,69.8,149,69.8"/>
	<path class="st19" d="M150.5,72c0.7,0,1.3-0.6,1.3-1.3c0-0.7-0.6-1.3-1.3-1.3s-1.3,0.6-1.3,1.3S149.7,72,150.5,72"/>
	<path class="st19" d="M151.9,73.5c0.7,0,1.3-0.6,1.3-1.3c0-0.7-0.6-1.3-1.3-1.3s-1.3,0.6-1.3,1.3C150.6,72.9,151.2,73.5,151.9,73.5
		"/>
	<path class="st19" d="M153.4,75c0.7,0,1.3-0.6,1.3-1.3c0-0.7-0.6-1.3-1.3-1.3s-1.3,0.6-1.3,1.3C152.1,74.4,152.7,75,153.4,75"/>
	<path class="st19" d="M154.9,76.4c0.7,0,1.3-0.6,1.3-1.3c0-0.7-0.6-1.3-1.3-1.3s-1.3,0.6-1.3,1.3C153.6,75.9,154.2,76.4,154.9,76.4
		"/>
	<path class="st19" d="M156.4,77.9c0.7,0,1.3-0.6,1.3-1.3c0-0.7-0.6-1.3-1.3-1.3s-1.3,0.6-1.3,1.3C155.1,77.3,155.7,77.9,156.4,77.9
		"/>
	<path class="st19" d="M157.9,79.4c0.7,0,1.3-0.6,1.3-1.3c0-0.7-0.6-1.3-1.3-1.3s-1.3,0.6-1.3,1.3C156.6,78.8,157.1,79.4,157.9,79.4
		"/>
	<path class="st19" d="M159.3,80.6c0.6,0,1-0.4,1-1s-0.4-1-1-1s-1,0.4-1,1C158.3,80.1,158.8,80.6,159.3,80.6"/>
	<path class="st19" d="M160.8,81.1C160.9,81.1,160.9,81.1,160.8,81.1c0.1-0.1,0-0.2,0-0.2C160.8,81,160.7,81,160.8,81.1
		C160.7,81.1,160.8,81.1,160.8,81.1"/>
	<path class="st19" d="M146,69.2L146,69.2L146,69.2L146,69.2L146,69.2"/>
	<path class="st19" d="M147.5,71.6c0.5,0,1-0.4,1-1c0-0.5-0.4-1-1-1c-0.5,0-1,0.4-1,1S147,71.6,147.5,71.6"/>
	<path class="st19" d="M149,73.5c0.7,0,1.3-0.6,1.3-1.3c0-0.7-0.6-1.3-1.3-1.3s-1.3,0.6-1.3,1.3S148.3,73.5,149,73.5"/>
	<path class="st19" d="M150.5,75c0.7,0,1.3-0.6,1.3-1.3c0-0.7-0.6-1.3-1.3-1.3s-1.3,0.6-1.3,1.3C149.1,74.4,149.7,75,150.5,75"/>
	<path class="st19" d="M151.9,76.4c0.7,0,1.3-0.6,1.3-1.3c0-0.7-0.6-1.3-1.3-1.3s-1.3,0.6-1.3,1.3C150.6,75.9,151.2,76.4,151.9,76.4
		"/>
	<path class="st19" d="M153.4,77.9c0.7,0,1.3-0.6,1.3-1.3c0-0.7-0.6-1.3-1.3-1.3s-1.3,0.6-1.3,1.3C152.1,77.3,152.7,77.9,153.4,77.9
		"/>
	<path class="st19" d="M154.9,79.4c0.7,0,1.3-0.6,1.3-1.3c0-0.7-0.6-1.3-1.3-1.3s-1.3,0.6-1.3,1.3C153.6,78.8,154.2,79.4,154.9,79.4
		"/>
	<path class="st19" d="M156.4,80.6c0.5,0,1-0.4,1-1c0-0.5-0.4-1-1-1c-0.5,0-1,0.4-1,1C155.4,80.1,155.8,80.6,156.4,80.6"/>
	<path class="st19" d="M157.9,81.1C157.9,81.1,158,81.1,157.9,81.1c0.1-0.1,0-0.2,0-0.2S157.8,81,157.9,81.1
		C157.8,81.1,157.8,81.1,157.9,81.1"/>
	<path class="st19" d="M146,72.2C146,72.2,146.1,72.2,146,72.2C146.1,72.1,146,72.1,146,72.2C146,72.1,146,72.1,146,72.2L146,72.2"
		/>
	<path class="st19" d="M147.5,74.6c0.5,0,1-0.4,1-1c0-0.5-0.4-1-1-1c-0.5,0-1,0.4-1,1S147,74.6,147.5,74.6"/>
	<path class="st19" d="M149,76.4c0.7,0,1.3-0.6,1.3-1.3c0-0.7-0.6-1.3-1.3-1.3s-1.3,0.6-1.3,1.3C147.7,75.9,148.3,76.4,149,76.4"/>
	<path class="st19" d="M150.5,77.9c0.7,0,1.3-0.6,1.3-1.3c0-0.7-0.6-1.3-1.3-1.3s-1.3,0.6-1.3,1.3C149.1,77.3,149.7,77.9,150.5,77.9
		"/>
	<path class="st19" d="M151.9,79.4c0.7,0,1.3-0.6,1.3-1.3c0-0.7-0.6-1.3-1.3-1.3s-1.3,0.6-1.3,1.3C150.6,78.8,151.2,79.4,151.9,79.4
		"/>
	<path class="st19" d="M153.4,80.6c0.5,0,1-0.4,1-1s-0.4-1-1-1c-0.5,0-1,0.4-1,1S152.9,80.6,153.4,80.6"/>
	<path class="st19" d="M154.9,81.1C154.9,81.1,155,81.1,154.9,81.1c0.1-0.1,0-0.2,0-0.2C154.9,81,154.8,81,154.9,81.1
		C154.8,81.1,154.9,81.1,154.9,81.1"/>
	<path class="st19" d="M146,75.2C146,75.2,146.1,75.2,146,75.2C146.1,75.1,146,75.1,146,75.2C146,75.1,146,75.1,146,75.2L146,75.2"
		/>
	<path class="st19" d="M147.5,77.6c0.5,0,1-0.4,1-1c0-0.5-0.4-1-1-1c-0.5,0-1,0.4-1,1C146.5,77.1,147,77.6,147.5,77.6"/>
	<path class="st19" d="M149,79.4c0.7,0,1.3-0.6,1.3-1.3c0-0.7-0.6-1.3-1.3-1.3s-1.3,0.6-1.3,1.3S148.3,79.4,149,79.4"/>
	<path class="st19" d="M150.5,80.6c0.5,0,1-0.4,1-1s-0.4-1-1-1c-0.5,0-1,0.4-1,1S149.9,80.6,150.5,80.6"/>
	<path class="st19" d="M151.9,81.1C152,81.1,152,81.1,151.9,81.1c0.1-0.1,0-0.2,0-0.2C151.9,81,151.9,81,151.9,81.1L151.9,81.1"/>
	<path class="st19" d="M146,78.1C146,78.1,146.1,78.1,146,78.1C146.1,78.1,146,78.1,146,78.1L146,78.1L146,78.1"/>
	<path class="st19" d="M147.5,80.3c0.4,0,0.7-0.3,0.7-0.7c0-0.4-0.3-0.7-0.7-0.7s-0.7,0.3-0.7,0.7S147.1,80.3,147.5,80.3"/>
	<path class="st19" d="M149,81.1C149,81.1,149.1,81.1,149,81.1c0.1-0.1,0-0.2,0-0.2C148.9,81,148.9,81,149,81.1
		C148.9,81.1,148.9,81.1,149,81.1"/>
</g>
</svg>
