<svg style="fill: #4A494A" xmlns="http://www.w3.org/2000/svg" viewBox="0 0 37.47 26"><title>nav-team_1</title><g id="Laag_2" data-name="Laag 2"><g id="Laag_1-2" data-name="Laag 1"><path d="M18.88,26c-1.85,0-3.71-.05-5.56,0-3.17.1-6.25.26-5.81-4.43.38-4.11,3.8-7.51,7.3-6.57a14.12,14.12,0,0,0,7.89,0c2.42-.68,4.43.74,5.86,2.66a7.22,7.22,0,0,1,.88,6.91C29,25.78,27.8,26,26.58,26,24,25.93,21.45,26,18.88,26Z"/><path d="M25.17,6.56a6.79,6.79,0,0,1-6.76,6.35A6.66,6.66,0,0,1,12.3,6,6.2,6.2,0,0,1,18.79,0,6.35,6.35,0,0,1,25.17,6.56Z"/><path d="M34.26,20.35c-.84,0-6-5.26-6-6.18a1.42,1.42,0,0,1,.58-.95c3-2,8.39.41,8.59,3.83C37.59,19.56,36.85,20.33,34.26,20.35Z"/><path d="M9.88,13c-1.64,2.28-3,3.5-3.49,5-.87,2.66-2.7,2.47-4.68,2.16C0,20,0,18.6,0,17.28c0-2.23,1-3.92,3.3-4.2A60.48,60.48,0,0,1,9.88,13Z"/><path d="M31.87,3.52c2.26.34,3.64,1.63,3.58,3.93a3.25,3.25,0,0,1-3.56,3.37,3.25,3.25,0,0,1-3.6-3.34C28.19,5.19,29.57,3.88,31.87,3.52Z"/><path d="M5.58,3.54C7.71,3.84,9,5.05,9.11,7.17a3.22,3.22,0,0,1-3.38,3.61C3.39,10.86,1.93,9.6,2,7.11,2.09,4.89,3.51,3.87,5.58,3.54Z"/></g></g></svg>