<svg style="fill: #4A494A" xmlns="http://www.w3.org/2000/svg" viewBox="0 0 26.4 27.98"><title>nav-feedback</title><g id="Laag_2" data-name="Laag 2"><g id="Laag_1-2" data-name="Laag 1"><path d="M20.42,7.93c.64.1,1.45.18,2.23.35a4.83,4.83,0,0,1,3.61,5.94c-.45,1.91-.59,3.89-1.05,5.8a24.23,24.23,0,0,1-1.72,5.33c-1.12,2.23-3.43,2.52-5.66,2.61a19.42,19.42,0,0,1-8.6-1.66,3.35,3.35,0,0,0-2.6.2A15.15,15.15,0,0,1,1,26.68c-.39,0-1-1.2-1-1.85C0,20.75,0,16.67,0,12.6c0-1.55.75-2.38,2.29-2.15C5.9,11,8.54,9.89,10.2,6.62c.36-.71.76-1.4,1.07-2.13.2-.46.23-1,.39-1.47.77-2.25,1.74-3,3.65-3A4.58,4.58,0,0,1,20,3.27,36.35,36.35,0,0,1,20.42,7.93ZM7.49,22.73A38.51,38.51,0,0,0,12,24.05c2.34.39,4.72.6,7.09.79a1.91,1.91,0,0,0,2.05-1.67c.23-.86.57-1.69.75-2.55.3-1.51.52-3,.78-4.56A5.8,5.8,0,0,1,23,14.2a2,2,0,0,0-1.79-3.09,31.78,31.78,0,0,1-3.52,0c-2.2,0-2.25-.19-1.51-2.26a14.51,14.51,0,0,0,.88-4.24c0-.53-.95-1.1-1.47-1.66-.35.49-.88.92-1,1.45-1,3.84-3.44,6.6-6.53,8.89a1.22,1.22,0,0,0-.52.77C7.47,17,7.49,19.88,7.49,22.73Zm-2.28.8L3.8,22.31c-.33.38-.83.74-.9,1.16a1.27,1.27,0,0,0,.8,1C4.12,24.41,4.53,24,5.21,23.53Z"/><rect x="2.07" y="21.08" width="3.55" height="3.94"/></g></g></svg>