<svg style="fill: #4A494A" xmlns="http://www.w3.org/2000/svg" viewBox="0 0 29.56 29.57"><title>nav-home</title><g id="Laag_2" data-name="Laag 2"><g id="Laag_1-2" data-name="Laag 1"><path d="M11.09,29.57H5.3l0,0A1.85,1.85,0,0,1,3.7,27.69v-11H1.83A1.84,1.84,0,0,1,.09,14.21a2.59,2.59,0,0,1,.7-1L3.92,10l8.2-8.19c.47-.47.94-.95,1.44-1.38a1.78,1.78,0,0,1,2-.28,2.87,2.87,0,0,1,.86.65L20.2,4.61a.28.28,0,0,1,.08.11l0,0V4.53c0-.37,0-.75,0-1.13a1.82,1.82,0,0,1,1.78-1.54h2.1a1.89,1.89,0,0,1,1.64,1.88c0,2.13,0,4.26,0,6.39a.25.25,0,0,0,.09.21c.29.28.58.57.86.86l2.06,2.07a2.45,2.45,0,0,1,.57.85c0,.14.08.28.12.41V15a.08.08,0,0,0,0,.05,1.81,1.81,0,0,1-1.82,1.55H25.86v.17c0,3.63,0,7.27,0,10.91a1.76,1.76,0,0,1-1.08,1.68,4,4,0,0,1-.52.17H18.48q0-4.59,0-9.19a2.56,2.56,0,0,0,0-.39,1.84,1.84,0,0,0-1.85-1.5H13a2.56,2.56,0,0,0-.39,0,1.85,1.85,0,0,0-1.49,1.86Z"/></g></g></svg>