<svg style="fill: #4A494A" xmlns="http://www.w3.org/2000/svg" viewBox="0 0 25.24 25.24"><defs></defs><title>nav-leaderboard_1</title><g id="Laag_2" data-name="Laag 2"><g id="Laag_1-2" data-name="Laag 1"><path class="cls-1" d="M22.43,2.8h-2.8V0h-14V2.8H2.8A2.82,2.82,0,0,0,0,5.61V7a7,7,0,0,0,6.16,6.93,7,7,0,0,0,5.06,4.15v4.34H5.61v2.81h14V22.43H14V18.09a7,7,0,0,0,5.06-4.15A7,7,0,0,0,25.24,7V5.61A2.82,2.82,0,0,0,22.43,2.8ZM2.8,7V5.61H5.61V11A4.21,4.21,0,0,1,2.8,7ZM22.43,7a4.2,4.2,0,0,1-2.8,4V5.61h2.8Z"/></g></g></svg>