<svg style="fill: #4A494A" xmlns="http://www.w3.org/2000/svg" viewBox="0 0 33.13 33.14"><title>nav-goals</title><g id="Laag_2" data-name="Laag 2"><g id="Laag_1-2" data-name="Laag 1"><path d="M33,14.68A16.16,16.16,0,0,0,29.9,6.79c-.08-.11-.09-.17,0-.27l.94-.94a.85.85,0,0,0,.24-.94.87.87,0,0,0-.77-.6L29.51,4c-.12,0-.19,0-.19-.19a3.43,3.43,0,0,0-.06-.55,1.92,1.92,0,0,0-.11-.58.9.9,0,0,0-1.46-.23c-.32.3-.62.62-.93.93-.08.09-.14.11-.25,0a16,16,0,0,0-3-1.82A16.42,16.42,0,0,0,16.77,0a15.85,15.85,0,0,0-3.44.32A16.29,16.29,0,0,0,8.56,2.07,16.88,16.88,0,0,0,4.37,5.36,16.43,16.43,0,0,0,0,16.73a14.82,14.82,0,0,0,.21,2.55,16.43,16.43,0,0,0,5.28,9.59,16.43,16.43,0,0,0,10.38,4.25,16.36,16.36,0,0,0,8.56-2,16.45,16.45,0,0,0,4.65-3.72,16.74,16.74,0,0,0,2.67-4.22,16.5,16.5,0,0,0,1.38-6.34A17.59,17.59,0,0,0,33,14.68ZM26.91,6a.88.88,0,0,0,.24.42.78.78,0,0,0,.39.19c-.37.38-.75.75-1.13,1.12l-.61,0c0-.17,0-.34-.05-.51Zm-.39,20.19a13.17,13.17,0,0,1-7.85,4.08A13.19,13.19,0,0,1,9,28.1a13.41,13.41,0,0,1-5.82-9,13.2,13.2,0,0,1-.06-4.3A13.54,13.54,0,0,1,7.27,6.89,13.65,13.65,0,0,1,18.1,3.2a13.68,13.68,0,0,1,6.59,2.53c.11.09.12.13,0,.23s-.26.25-.39.37a.88.88,0,0,0-.26.8c.05.33.08.65.12,1,0,.07,0,.12-.05.17L23.05,9.33c-.11,0-.17-.06-.24-.12a9.37,9.37,0,0,0-3.55-1.82,9.89,9.89,0,0,0-2.17-.32,9.5,9.5,0,0,0-3.81.64A9.15,9.15,0,0,0,10.59,9.3a9.47,9.47,0,0,0-3,4.63,9.17,9.17,0,0,0-.39,3.21,9.61,9.61,0,0,0,5.55,8.23,9.27,9.27,0,0,0,3.18.85A10,10,0,0,0,18.83,26a9.61,9.61,0,0,0,6.44-13.82,9.46,9.46,0,0,0-.95-1.47c-.06-.08-.14-.14-.13-.25l1.08-1.09a.2.2,0,0,1,.15-.05l.95.14a1,1,0,0,0,.92-.29,3.31,3.31,0,0,0,.32-.33c.11-.13.16-.05.22,0a13.66,13.66,0,0,1,1.71,3.28,13.2,13.2,0,0,1,.76,3.63A13.41,13.41,0,0,1,26.52,26.23Zm-5.69-12a4.74,4.74,0,0,1,.68,2.49,4.77,4.77,0,0,1-5.18,4.71A4.75,4.75,0,0,1,12,16.08a4.55,4.55,0,0,1,1.41-2.83,4.73,4.73,0,0,1,5.9-.59.41.41,0,0,0,.24.11l-1.17,1.17L16.12,16.2a.79.79,0,0,0,0,1.17.78.78,0,0,0,1.15,0L20.6,14l.12-.1A.43.43,0,0,0,20.83,14.2Z"/><path d="M26.39,16.17a9.63,9.63,0,0,1-5.05,9,9.18,9.18,0,0,1-3.72,1.11,9.42,9.42,0,0,1-7.23-2.36,9.22,9.22,0,0,1-3-5,9.7,9.7,0,0,1,5-10.83A9.73,9.73,0,0,1,22.93,9.24l.12.09-2,2-1.45,1.42a.41.41,0,0,1-.24-.11,4.73,4.73,0,0,0-5.9.59A4.55,4.55,0,0,0,12,16.08a4.75,4.75,0,0,0,4.3,5.32,4.77,4.77,0,0,0,5.18-4.71,4.74,4.74,0,0,0-.68-2.49.43.43,0,0,1-.11-.26l1.51-1.52,1.85-1.82a.52.52,0,0,1,.11-.1,9.63,9.63,0,0,1,2.2,5.67Z"/></g></g></svg>