<?xml version="1.0" encoding="utf-8"?>
<!-- Generator: Adobe Illustrator 24.1.3, SVG Export Plug-In . SVG Version: 6.00 Build 0)  -->
<svg version="1.1" id="Laag_1" xmlns="http://www.w3.org/2000/svg" xmlns:xlink="http://www.w3.org/1999/xlink" x="0px" y="0px"
	 viewBox="0 0 34.6 34.6" style="enable-background:new 0 0 34.6 34.6;" xml:space="preserve">
<style type="text/css">
	.st0{fill:#484E57;}
	.st1{fill:#E62050;}
	.st2{fill:#31B6DD;}
	.st3{fill:#18696E;}
</style>
<path class="st0" d="M33.2,17.2L33.2,17.2z"/>
<path class="st0" d="M7.4,18.7c0.1,0,0.1,0,0.2,0C7.5,18.7,7.5,18.7,7.4,18.7z"/>
<path class="st0" d="M29.2,23.4L29.2,23.4z"/>
<path class="st0" d="M21.1,4.4C21,4.2,20.9,4,21,3.8l0.8-2c0.1-0.3,0.4-0.4,0.7-0.3c0.3,0.1,0.4,0.4,0.3,0.7l-0.8,2
	c-0.1,0.3-0.4,0.4-0.7,0.3C21.2,4.5,21.1,4.4,21.1,4.4z"/>
<path class="st0" d="M25.2,7.3c-0.2-0.2-0.2-0.6,0.1-0.8l1.6-1.4c0.2-0.2,0.6-0.2,0.8,0.1c0.2,0.2,0.2,0.6-0.1,0.8L26,7.4
	C25.8,7.6,25.4,7.5,25.2,7.3C25.2,7.3,25.2,7.3,25.2,7.3z"/>
<path class="st0" d="M23.2,5.7c-0.2-0.2-0.2-0.5,0-0.7l2.4-3c0.2-0.2,0.6-0.3,0.8-0.1s0.3,0.6,0.1,0.8l-2.4,3
	C23.9,6,23.6,6,23.2,5.7C23.3,5.8,23.2,5.7,23.2,5.7z"/>
<path class="st0" d="M26.9,21.9C26.9,21.9,26.9,21.9,26.9,21.9l-0.8,0.8L24.4,21c-0.1,0-0.3-0.1-0.3-0.2c-0.1-0.1-0.2-0.3-0.1-0.4
	c0.2-1.1,0.1-2.2-0.3-3.3c-0.3-1.1-1-2.1-1.8-2.9L17,9.4c-0.2-0.2-0.5-0.2-0.7,0c-0.2,0.2-0.4,0.5-0.4,0.8c0,0,0,0.1,0,0.1v0.1
	c0,0.4,0.2,0.8,0.4,1.1l3.3,3.3c0.2,0.2,0.2,0.6,0,0.8c-0.2,0.2-0.6,0.2-0.8,0l-2.5-2.5c0,0,0,0,0-0.1L10,6.8c-0.4-0.4-1-0.4-1.4,0
	C8.5,6.9,8.4,7,8.4,7.1c-0.1,0.3-0.1,0.5,0,0.8C8.4,8,8.5,8.1,8.6,8.2l5.6,5.5c0,0,0,0,0,0c0,0,0,0,0,0c0.1,0.1,0.1,0.2,0.1,0.3
	c0,0.1-0.1,0.3-0.2,0.4c-0.1,0.1-0.3,0.2-0.4,0.2c-0.1,0-0.3-0.1-0.4-0.2L8.2,9.4L6.1,7.2L5.6,6.8c0-0.1-0.1-0.1-0.1-0.1
	c0,0,0,0,0,0c0,0,0,0,0,0c0,0,0,0,0,0c0,0,0,0,0,0c-0.1,0-0.1-0.1-0.2-0.1c-0.1,0-0.2,0-0.2,0c-0.3,0-0.5,0.1-0.7,0.3
	c-0.4,0.4-0.4,1,0,1.4l0.2,0.2l2,2c0,0,0,0,0.1,0.1l5.5,5.5c0,0,0,0,0,0c0.2,0.2,0.2,0.6,0,0.8c-0.2,0.2-0.6,0.2-0.8,0l-5.1-5.1
	l-1.2-1.2c-0.2-0.2-0.4-0.3-0.7-0.3c-0.3,0-0.5,0.1-0.7,0.3c-0.4,0.4-0.4,1,0,1.4l6.3,6.3c0,0,0,0,0,0c0,0,0,0,0,0.1c0,0,0,0,0,0
	c0,0,0,0,0,0.1c0,0,0,0,0,0.1c0,0,0,0.1,0,0.1c0,0.1,0,0.3-0.1,0.4c0,0,0,0,0,0l0,0c0,0,0,0-0.1,0.1c-0.1,0.1-0.3,0.2-0.4,0.2
	c-0.2,0-0.3-0.1-0.4-0.2l-4-4c0,0,0,0-0.1-0.1c-0.2-0.2-0.4-0.3-0.7-0.3c-0.3,0-0.5,0.1-0.7,0.3c-0.2,0.2-0.3,0.4-0.3,0.7
	c0,0.3,0.1,0.5,0.3,0.7l8.1,8.1c1.6,1.6,3.7,2.3,5.9,2.1c0.2,0,0.4,0,0.5,0.2l2.1,2.1l-0.8,0.8c0,0,0,0,0,0l-1.9-1.9
	c-2.5,0.2-4.9-0.7-6.6-2.4l-8.1-8.1C2.2,16.7,2,16.2,2,15.6c0-0.6,0.2-1.1,0.6-1.5c0.3-0.3,0.5-0.4,0.9-0.5l-0.9-0.9
	c-0.8-0.8-0.8-2.2,0-3c0.2-0.2,0.5-0.4,0.9-0.5L3.4,9c-0.8-0.8-0.8-2.2,0-3c0.4-0.4,0.9-0.6,1.5-0.6c0.1,0,0.3,0,0.4,0
	C5.7,5.5,6.1,5.7,6.4,6l0.9,0.9c0.1-0.2,0.2-0.4,0.3-0.6C7.6,6.1,7.7,6.1,7.8,6c0.5-0.5,1.1-0.7,1.7-0.6c0.5,0,0.9,0.2,1.3,0.6l4,4
	c0-0.2,0.1-0.5,0.2-0.7c0.1-0.3,0.3-0.5,0.5-0.7c0.3-0.3,0.7-0.5,1.1-0.5c0.4,0,0.8,0.2,1.2,0.5l4.1,4.1l0.7,0.7
	c0.9,1,1.6,2.1,2.1,3.4c0.3,1.1,0.5,2.2,0.4,3.4l1.3,1.3L26.9,21.9z"/>
<path class="st0" d="M29.8,22.5c-0.2-0.2-0.6-0.2-0.8,0l-0.4,0.4l-1-1c-0.1-0.1-0.1-0.1-0.2-0.1c-0.2-0.1-0.3,0-0.5,0.1c0,0,0,0,0,0
	l-0.8,0.8l-6,6l-0.8,0.8c0,0,0,0,0,0c-0.2,0.2-0.2,0.5,0,0.7l1,1l-0.4,0.4c-0.2,0.2-0.2,0.6,0,0.8l1.6,1.6l10-10L29.8,22.5z
	 M21,30.5l-0.7-0.7l6.9-6.9l0.2,0.2l0.5,0.5L21,30.5z"/>
<polygon class="st1" points="27.9,23.6 23,28.6 21,30.5 20.3,29.9 23.2,27 23.9,26.3 26.8,23.4 27.2,23 27.4,23.2 "/>
<path class="st2" d="M26.1,22.7l-6,6L18,26.7c-0.1-0.1-0.3-0.2-0.5-0.2c-2.2,0.2-4.4-0.5-5.9-2.1l-8.1-8.1c-0.2-0.2-0.3-0.4-0.3-0.7
	c0-0.3,0.1-0.5,0.3-0.7c0.2-0.2,0.4-0.3,0.7-0.3c0.3,0,0.5,0.1,0.7,0.3c0,0,0.1,0,0.1,0.1l4,4c0.1,0.1,0.3,0.2,0.4,0.2
	c0.1,0,0.3-0.1,0.4-0.2c0,0,0,0,0.1-0.1l0,0c0,0,0,0,0,0c0.1-0.1,0.1-0.3,0.1-0.4c0,0,0-0.1,0-0.1c0,0,0,0,0-0.1c0,0,0-0.1,0-0.1
	c0,0,0,0,0,0c0,0,0,0,0-0.1c0,0,0,0,0,0l-6.3-6.3c-0.4-0.4-0.4-1,0-1.4c0.2-0.2,0.4-0.3,0.7-0.3c0.3,0,0.5,0.1,0.7,0.3l1.2,1.2
	l5.1,5.1c0.2,0.2,0.6,0.2,0.8,0c0.2-0.2,0.2-0.5,0-0.8c0,0,0,0,0,0l-5.5-5.5c0,0,0,0-0.1-0.1l-2-2L4.2,8.2c-0.4-0.4-0.4-1,0-1.4
	c0.2-0.2,0.4-0.3,0.7-0.3c0.1,0,0.2,0,0.2,0c0.1,0,0.1,0.1,0.2,0.1c0,0,0,0,0,0c0,0,0,0,0,0c0,0,0,0,0,0c0,0,0,0,0,0
	c0.1,0,0.1,0.1,0.1,0.1l0.5,0.5l2.1,2.1l5.2,5.2c0.1,0.1,0.3,0.2,0.4,0.2c0.1,0,0.3-0.1,0.4-0.2c0.1-0.1,0.2-0.3,0.2-0.4
	c0-0.1,0-0.2-0.1-0.3c0,0,0,0,0,0c0,0,0,0,0,0L8.6,8.2C8.5,8.1,8.4,8,8.4,7.9c-0.1-0.3-0.1-0.5,0-0.8C8.4,7,8.5,6.9,8.6,6.8
	c0.4-0.4,1-0.4,1.4,0l6.3,6.3c0,0,0,0,0,0.1l2.5,2.5c0.2,0.2,0.6,0.2,0.8,0c0.2-0.2,0.2-0.6,0-0.8l-3.3-3.3
	c-0.3-0.3-0.4-0.7-0.4-1.1v-0.1c0,0,0-0.1,0-0.1c0.1-0.3,0.2-0.6,0.4-0.8c0.2-0.2,0.5-0.2,0.7,0l4.8,4.8c0.8,0.8,1.4,1.8,1.8,2.9
	c0.3,1,0.4,2.2,0.3,3.3c0,0.2,0,0.3,0.1,0.4c0.1,0.1,0.2,0.2,0.3,0.2L26.1,22.7z"/>
<path class="st3" d="M28.3,19.6l-1.9,1.9l-1.3-1.3c0.1-1.1,0-2.3-0.4-3.4c-0.4-1.3-1.1-2.4-2.1-3.4L22,12.7l0.1-0.1
	c0.2-0.2,0.2-0.6,0-0.8l-3.3-3.3c-0.3-0.3-0.4-0.7-0.4-1.1c0-0.4,0.2-0.8,0.4-1.1c0.2-0.2,0.5-0.2,0.7,0l4.8,4.8
	c0.8,0.8,1.4,1.8,1.8,2.9c0.3,1,0.4,2.2,0.3,3.3c0,0.2,0,0.3,0.1,0.5c0.1,0.1,0.2,0.2,0.3,0.2L28.3,19.6z"/>
<path class="st3" d="M16.7,8.1c-0.4,0-0.8,0.2-1.1,0.5C15.3,8.8,15.2,9,15,9.3l-4.1-4.1c-0.4-0.4-0.4-1,0-1.4c0.4-0.4,1-0.4,1.4,0
	L16.7,8.1z"/>
<path class="st3" d="M9.5,5.4C8.9,5.3,8.3,5.5,7.8,6C7.7,6.1,7.6,6.1,7.6,6.2L6.5,5.2c-0.4-0.4-0.4-1,0-1.4c0.2-0.2,0.4-0.3,0.7-0.3
	c0.3,0,0.5,0.1,0.7,0.3L9.5,5.4z"/>
<path class="st1" d="M30.9,19.6l-2.9,2.8L27.6,22c-0.1-0.1-0.1-0.1-0.2-0.1l2.9-2.9L30.9,19.6z"/>
<path class="st0" d="M34.3,19.9l-3.4,3.4c0,0,0,0.1,0,0.2l-1.1-1.1c-0.2-0.2-0.6-0.2-0.8,0l-0.4,0.4l-0.5-0.5l2.9-2.8L30.3,19
	l-2.9,2.9c-0.2-0.1-0.3,0-0.5,0.1l-0.5-0.5l1.9-1.9L26.7,18c-0.1,0-0.3-0.1-0.3-0.2c-0.1-0.1-0.2-0.3-0.1-0.5
	c0.2-1.1,0.1-2.2-0.3-3.3c-0.4-1.1-1-2.1-1.8-2.9l-4.8-4.8c-0.2-0.2-0.5-0.2-0.7,0c-0.3,0.3-0.4,0.7-0.4,1.1c0,0.4,0.2,0.8,0.4,1.1
	l3.3,3.3c0.2,0.2,0.2,0.6,0,0.8L22,12.7l-4.1-4.1c-0.3-0.3-0.7-0.5-1.2-0.5l-4.3-4.3c-0.4-0.4-1-0.4-1.4,0c-0.4,0.4-0.4,1,0,1.4
	L15,9.3c-0.1,0.2-0.2,0.4-0.2,0.7l-4-4C10.5,5.6,10,5.4,9.5,5.3L7.9,3.7C7.7,3.6,7.5,3.5,7.2,3.5c-0.3,0-0.5,0.1-0.7,0.3
	c-0.4,0.4-0.4,1,0,1.4l1.1,1.1C7.4,6.4,7.3,6.6,7.3,6.8L6.4,6C6.1,5.7,5.7,5.4,5.3,5.4C4.9,4.6,5,3.6,5.7,2.9
	c0.4-0.4,0.9-0.6,1.5-0.6c0.6,0,1.1,0.2,1.5,0.6l0.9,0.9c0.1-0.3,0.3-0.6,0.5-0.9c0.8-0.8,2.2-0.8,3,0l4,4c0.1-0.5,0.3-1,0.7-1.4
	c0.6-0.6,1.7-0.6,2.3,0l4.8,4.8c1,1,1.6,2.1,2.1,3.4c0.3,1.1,0.5,2.2,0.4,3.4l1.7,1.7l0.1-0.1l0.8-0.8c0,0,0,0,0,0
	c0.2-0.2,0.5-0.2,0.7,0l1,1l0.4-0.4c0.2-0.2,0.6-0.2,0.8,0L34.3,19.9z"/>
</svg>
