<?xml version="1.0" encoding="utf-8"?>
<!-- Generator: Adobe Illustrator 24.1.3, SVG Export Plug-In . SVG Version: 6.00 Build 0)  -->
<svg version="1.1" id="Laag_1" xmlns="http://www.w3.org/2000/svg" xmlns:xlink="http://www.w3.org/1999/xlink" x="0px" y="0px"
	 viewBox="0 0 34.6 34.6" style="enable-background:new 0 0 34.6 34.6;" xml:space="preserve">
<style type="text/css">
	.st0{fill:#18696E;}
	.st1{fill:#31B6DD;}
	.st2{fill:none;stroke:#484E57;stroke-width:1.5;stroke-miterlimit:10;}
	.st3{fill:#E62050;}
</style>
<path class="st0" d="M10.2,10.1V9.9C10.3,8,11.1,6.3,12.4,5c1-0.3,2.1-0.5,3.2-0.5c4,0.3,7.3,2.8,8.9,6.2c-0.2,3.7-3.4,6.6-7.2,6.4
	c0,0,0,0-0.1,0C13.4,17.2,10.2,14,10.2,10.1z"/>
<path class="st1" d="M12.4,5.1c1.4-1.4,3.3-2.2,5.3-2.2c4,0.3,7,3.8,6.8,7.8c0,0.1,0,0.1,0,0.2c-1.6-3.4-4.9-5.9-8.9-6.2
	C14.5,4.6,13.4,4.8,12.4,5.1z"/>
<path class="st2" d="M10.2,10.1V9.9C10.3,8,11.1,6.3,12.4,5c1.4-1.4,3.3-2.2,5.3-2.2c4,0.3,7,3.8,6.8,7.8c0,0.1,0,0.1,0,0.2
	c-0.2,3.7-3.4,6.6-7.2,6.4c0,0,0,0-0.1,0C13.4,17.2,10.2,14,10.2,10.1z"/>
<path class="st3" d="M17.5,31.6c-2.1,0-4.1,0-6.2,0c-3.6,0.1-6.9,0.3-6.5-4.9c0.4-4.6,4.2-8.3,8.1-7.3c2.9,0.8,5.9,0.8,8.8,0
	c2.7-0.8,4.9,0.8,6.5,3s2,5.1,1,7.7c-0.5,1.4-1.8,1.6-3.2,1.6C23.2,31.6,20.3,31.6,17.5,31.6z"/>
<path class="st2" d="M17.5,31.6c-2.1,0-4.1,0-6.2,0c-3.6,0.1-6.9,0.3-6.5-4.9c0.4-4.6,4.2-8.3,8.1-7.3c2.9,0.8,5.9,0.8,8.8,0
	c2.7-0.8,4.9,0.8,6.5,3s2,5.1,1,7.7c-0.5,1.4-1.8,1.6-3.2,1.6C23.2,31.6,20.3,31.6,17.5,31.6z"/>
</svg>
