<?xml version="1.0" encoding="utf-8"?>
<!-- Generator: Adobe Illustrator 24.1.3, SVG Export Plug-In . SVG Version: 6.00 Build 0)  -->
<svg version="1.1" id="Laag_1" xmlns="http://www.w3.org/2000/svg" xmlns:xlink="http://www.w3.org/1999/xlink" x="0px" y="0px"
	 viewBox="0 0 34.6 34.6" style="enable-background:new 0 0 34.6 34.6;" xml:space="preserve">
<style type="text/css">
	.st0{clip-path:url(#SVGID_2_);fill:#31B6DD;}
	.st1{clip-path:url(#SVGID_2_);fill:#18696E;}
	.st2{clip-path:url(#SVGID_2_);fill:#E62050;}
	.st3{fill:#484E57;}
	.st4{fill:#31B6DD;}
</style>
<g>
	<defs>
		<path id="SVGID_1_" d="M32.2,20.4c0,3.1-0.6,6.1-1.5,9.1c-0.1,0.5-0.3,1-0.5,1.5c-0.2,0.5-0.6,1-1.1,1.4c-1,0.8-2.2,0.9-3.2,0.9
			h-0.5c-1.1,0-2.2-0.2-3.3-0.2c0,0-0.1,0-0.1,0h-0.1l-0.3,0c-0.1,0-0.3,0-0.5,0h-0.3c-1.3,0-2.6,0.3-4,0.7
			c-1.4,0.3-2.8,0.6-4.2,0.7h-0.2c-1.1,0-2.3-0.2-3.4-0.4c-0.9-0.2-1.8-0.7-2.6-1.2c-2.5-1.7-3.8-4.5-3.8-7.4c0-0.5,0-1.1,0.1-1.6
			c0.1-0.9,0.5-1.9,0.9-2.7c1.7-3.1,4.9-4.9,8.4-4.9c1.5,0,3.1,0.3,4.5,1c0.9,0.4,1.7,0.9,2.4,1.6c0.1-0.4,0.2-0.8,0.3-1.3
			c0.4-1.4,0.8-2.7,1-3.9c0.2-0.9,0.3-1.8,0.3-2.8c0-0.4,0-0.9,0-1.3c-0.4,0-1,0.1-1.6,0.1c-0.4,0-0.8,0-1.2-0.1
			c-0.1,0-0.2,0-0.3-0.1c-0.1,0.1-0.2,0.3-0.3,0.4c-0.4,0.6-1.1,1-1.9,1c-0.2,0-0.4,0-0.6-0.1c-0.4-0.1-0.7-0.3-0.8-0.6
			c-0.2-0.3-0.2-0.6-0.2-0.8V9.3l0,0c0-0.3,0.1-0.6,0.2-0.9c0.1-0.2,0.1-0.4,0.1-0.6v0c-0.3-0.2-0.5-0.5-0.7-0.8
			c-0.2-0.4-0.3-0.8-0.4-1.2c0-0.1,0-0.2,0-0.3c0-1,0.3-1.9,0.6-2.7c0.1-0.2,0.1-0.4,0.2-0.7c0.1-0.3,0.1-0.6,0.4-1
			c0.1-0.2,0.4-0.4,0.6-0.6c0.6-0.3,1.1-0.4,1.7-0.4c0.4,0,0.8,0,1.2,0.1c0.1,0,0.4,0,0.8,0.1c0.4,0,0.8,0.1,1.4,0.1
			c1,0.1,2.3,0.2,3.4,0.3c0.7,0.1,1.3,0.2,1.8,0.3c0.8,0.1,1.5,0.5,2.1,1c0.6,0.5,1.1,1.1,1.5,1.8c1.2,1.9,1.9,4.6,2.5,7
			c0.5,2.4,0.8,4.6,1,5.4l0,0C32.1,17.7,32.2,19.1,32.2,20.4z"/>
	</defs>
	<clipPath id="SVGID_2_">
		<use xlink:href="#SVGID_1_"  style="overflow:visible;"/>
	</clipPath>
	<circle class="st0" cx="17.9" cy="18.9" r="18.2"/>
	<circle class="st1" cx="12.2" cy="25.4" r="18.2"/>
	<ellipse class="st2" cx="11.6" cy="25.3" rx="8.5" ry="9.1"/>
	<circle class="st0" cx="15.5" cy="8.2" r="5.3"/>
</g>
<path class="st3" d="M31.9,16.4L31.9,16.4c-0.2-0.8-0.5-3-1-5.4c-0.5-2.4-1.3-5.1-2.5-7c-0.4-0.7-0.9-1.3-1.5-1.8
	c-0.6-0.5-1.3-0.9-2.1-1C24.3,1,23.7,0.9,23,0.8c-1.1-0.1-2.3-0.2-3.4-0.3c-0.5,0-1-0.1-1.4-0.1c-0.4,0-0.7-0.1-0.8-0.1
	c-0.4-0.1-0.8-0.1-1.2-0.1c-0.5,0-1.1,0.1-1.7,0.4C14.3,0.8,14.1,1,14,1.2c-0.2,0.3-0.3,0.7-0.4,1c-0.1,0.3-0.1,0.5-0.2,0.7
	c-0.3,0.8-0.6,1.7-0.6,2.7c0,0.1,0,0.2,0,0.3c0,0.4,0.1,0.8,0.4,1.2c0.2,0.3,0.4,0.5,0.7,0.8c0,0,0,0,0,0c0,0.1,0,0.3-0.1,0.6
	c-0.1,0.2-0.2,0.5-0.2,0.9l0,0c0,0,0,0,0,0.1c0,0.3,0.1,0.6,0.2,0.8c0.2,0.3,0.5,0.5,0.8,0.6c0.2,0.1,0.4,0.1,0.6,0.1
	c0.8,0,1.5-0.4,1.9-1c0.1-0.1,0.2-0.3,0.3-0.4c0.1,0,0.2,0.1,0.3,0.1c0.4,0.1,0.8,0.1,1.2,0.1c0.7,0,1.2-0.1,1.6-0.1
	c0,0.4,0,0.9,0,1.3c0,0.9-0.1,1.9-0.3,2.8c-0.2,1.2-0.7,2.5-1,3.9c-0.1,0.4-0.2,0.8-0.3,1.3c-0.7-0.7-1.5-1.2-2.4-1.6
	c-1.5-0.7-3.1-1-4.5-1c-3.5,0-6.7,1.8-8.4,4.9c-0.4,0.8-0.8,1.8-0.9,2.7c-0.1,0.5-0.1,1.1-0.1,1.6c0,2.9,1.2,5.7,3.8,7.4
	C7.2,33.3,8.1,33.7,9,34c1.1,0.3,2.2,0.5,3.4,0.5c0.1,0,0.2,0,0.2,0c1.5,0,2.9-0.4,4.2-0.7c1.4-0.3,2.7-0.6,4-0.6c0.1,0,0.2,0,0.3,0
	c0.2,0,0.3,0,0.5,0l0.3,0c0,0,0,0,0.1,0c0,0,0.1,0,0.1,0c1.1,0.1,2.2,0.2,3.3,0.2c0.2,0,0.3,0,0.5,0c1,0,2.2-0.1,3.2-0.9
	c0.5-0.4,0.8-0.9,1.1-1.4c0.2-0.5,0.4-1,0.5-1.5c0.9-3,1.5-6,1.5-9.1C32.2,19.1,32.1,17.7,31.9,16.4z M16.1,9.2
	c-0.2,0.3-0.6,0.5-0.9,0.5c-0.1,0-0.2,0-0.2,0c-0.1,0-0.1,0-0.1-0.1c0,0,0-0.1,0-0.2v0c0-0.2,0.1-0.4,0.2-0.6c0-0.1,0-0.1,0.1-0.2
	c0,0,0,0,0,0C15.4,8.8,15.8,9,16.1,9.2C16.1,9.1,16.1,9.1,16.1,9.2z M29.5,29.1L29.5,29.1c-0.1,0.5-0.3,0.9-0.5,1.3
	c-0.2,0.4-0.4,0.7-0.7,1c-0.6,0.5-1.5,0.6-2.4,0.6c-0.2,0-0.3,0-0.5,0c-1.2,0-2.5-0.2-3.8-0.2l-3.8-0.4c-0.3,0-0.7,0.2-0.7,0.6
	c0,0.1,0,0.2,0.1,0.3c-0.2,0.1-0.4,0.1-0.6,0.1c-1.4,0.3-2.7,0.6-4,0.7c-0.1,0-0.1,0-0.2,0c-1,0-2.1-0.2-3-0.4
	c-0.7-0.2-1.5-0.6-2.2-1C5,30.3,4,27.9,3.9,25.4c0-0.5,0-1,0.1-1.4c0.1-0.8,0.4-1.6,0.8-2.3c1.5-2.7,4.2-4.2,7.3-4.2
	c1.2,0,2.7,0.3,4,0.9c1.2,0.5,2.2,1.3,2.6,2.2c0,0.4-0.1,0.9-0.1,1.3c0,0.9,0.1,1.9,0.5,2.8c0.3,0.9,0.9,1.7,1.7,2.4
	c0.1,0.1,0.3,0.2,0.4,0.2c0.2,0,0.3-0.1,0.5-0.2c0.2-0.3,0.2-0.7-0.1-0.9c-0.2-0.1-0.3-0.3-0.4-0.4c-0.4-0.5-0.7-1-0.9-1.5
	c-0.3-0.7-0.4-1.5-0.4-2.3c0-0.4,0-0.8,0.1-1.2c0-0.1,0-0.2,0-0.3c0.1-0.8,0.3-1.7,0.5-2.5c0.2-0.8,0.4-1.6,0.6-2.4
	c0.1-0.5,0.3-1.1,0.4-1.6c0.2-1,0.3-2,0.3-3c0-0.5,0-0.9,0-1.4c0.7-0.1,1.3-0.4,1.8-0.8c0.2,0.1,0.5,0.1,0.7,0.1h0
	c0.5,0,0.9-0.1,1.2-0.4c0.5-0.3,0.8-0.7,1-1.1c0.2-0.3,0.3-0.6,0.3-0.6c0.1-0.3-0.1-0.7-0.4-0.8c-0.3-0.1-0.7,0.1-0.8,0.4h0
	c0,0,0,0,0,0c0,0-0.1,0.4-0.3,0.6c-0.1,0.1-0.2,0.3-0.4,0.4c-0.1,0.1-0.3,0.1-0.4,0.1c0.1-0.3,0.2-0.7,0.2-1c0-0.3-0.1-0.6-0.1-0.9
	c-0.1-0.3-0.2-0.5-0.4-0.7c-0.3-0.2-0.5-0.3-0.8-0.3c-0.4,0-0.7,0.1-1,0.3c-0.2,0.1-0.3,0.3-0.4,0.4c-0.1,0.2-0.2,0.4-0.2,0.7
	c0,0.2,0.1,0.5,0.2,0.7c0.2,0.3,0.5,0.4,0.9,0.3s0.4-0.5,0.3-0.9c0-0.1,0-0.1,0-0.1c0,0,0-0.1,0.1-0.1C23,6,23.1,6,23.1,6
	c0,0,0,0.1,0.1,0.2c0,0.1,0.1,0.3,0.1,0.5c0,0.4-0.1,0.8-0.4,1.1c-0.3,0.3-0.7,0.5-1.4,0.6c-0.7-0.8-0.8-1.5-0.8-2.1
	c0-0.1,0-0.2,0-0.3c0-0.3-0.2-0.7-0.6-0.7c-0.3,0-0.7,0.2-0.7,0.6c0,0.1,0,0.3,0,0.5c0,0.6,0.1,1.4,0.6,2.1c-0.3,0-0.6,0.1-0.9,0.1
	c-0.4-0.9-0.6-1.7-0.6-2.3c0-0.3,0-0.5,0-0.7c0.1-0.3-0.2-0.7-0.5-0.7c-0.3-0.1-0.7,0.2-0.7,0.5c0,0.3-0.1,0.6-0.1,0.9
	c0,0.6,0.1,1.4,0.4,2.2c-0.4-0.1-0.7-0.2-1.1-0.4c0-0.1,0-0.2,0-0.2c-0.2-0.6-0.3-1.1-0.3-1.7c0-0.6,0.1-1.2,0.3-1.7
	C16.5,4,16.3,3.6,16,3.5c-0.3-0.1-0.7,0.1-0.8,0.4C15.1,4.2,15,4.5,15,4.9c-0.1,0.3-0.1,0.7-0.1,1.1c0,0.3,0,0.7,0.1,1.1
	c-0.3-0.3-0.6-0.5-0.7-0.7c-0.1-0.2-0.2-0.4-0.2-0.6c0-0.1,0-0.2,0-0.2c0-0.7,0.2-1.4,0.5-2.2c0.2-0.4,0.2-0.8,0.3-1.1
	C14.9,2.1,15,2,15,1.9c0-0.1,0.1-0.1,0.2-0.1c0.3-0.2,0.7-0.2,1.1-0.2c0.3,0,0.7,0,1,0.1c0.3,0,0.7,0.1,1.3,0.1
	c0.9,0.1,2.1,0.1,3.2,0.2c1.1,0.1,2.2,0.2,2.8,0.4l0.1,0c0.5,0.1,1,0.4,1.5,0.7C26.6,3.5,27,4,27.3,4.6c1,1.7,1.8,4.3,2.3,6.6
	c0.5,2.4,0.8,4.5,1,5.4c0.2,1.3,0.3,2.6,0.3,3.8C31,23.3,30.4,26.2,29.5,29.1z"/>
<path class="st3" d="M17,24.8c-1.7,1.4-3.5,2-5.2,2c-2.3,0-4.4-1-5.6-2c-0.3-0.2-0.7-0.2-0.9,0.1c-0.2,0.3-0.2,0.7,0.1,0.9
	c1.5,1.2,3.8,2.3,6.4,2.3c0,0,0,0,0,0c2,0,4.1-0.6,6-2.3c0.3-0.2,0.3-0.6,0.1-0.9C17.7,24.6,17.3,24.6,17,24.8z"/>
<path class="st3" d="M11.6,15c0.4,0,0.6-0.3,0.6-0.6V9.9c0-0.4-0.3-0.6-0.6-0.6c-0.4,0-0.6,0.3-0.6,0.6v4.5
	C10.9,14.7,11.2,15,11.6,15z"/>
<path class="st3" d="M8.2,14.9c0.1,0.2,0.3,0.3,0.6,0.3c0.1,0,0.2,0,0.3-0.1c0.3-0.2,0.4-0.6,0.3-0.9L7.5,11
	c-0.2-0.3-0.6-0.4-0.9-0.3c-0.3,0.2-0.4,0.6-0.3,0.9L8.2,14.9z"/>
<path class="st3" d="M4.1,14.9L6,16.4c0.1,0.1,0.3,0.1,0.4,0.1c0.2,0,0.4-0.1,0.5-0.2c0.2-0.3,0.2-0.7-0.1-0.9l-1.9-1.5
	c-0.3-0.2-0.7-0.2-0.9,0.1C3.7,14.3,3.8,14.7,4.1,14.9z"/>
<path class="st3" d="M14.7,15.2c0.2,0,0.5-0.1,0.6-0.4l1-2.1c0.1-0.3,0-0.7-0.3-0.8c-0.3-0.1-0.7,0-0.8,0.3l-1,2.1
	c-0.1,0.3,0,0.7,0.3,0.8C14.5,15.2,14.6,15.2,14.7,15.2z"/>
<path class="st3" d="M17.9,16.2l1-1c0.3-0.2,0.3-0.6,0-0.9c-0.2-0.3-0.6-0.3-0.9,0l-1,1c-0.3,0.2-0.3,0.6,0,0.9
	c0.1,0.1,0.3,0.2,0.5,0.2C17.7,16.3,17.8,16.3,17.9,16.2z"/>
<path class="st3" d="M28.1,28.4c-0.3-0.1-0.7,0.1-0.8,0.5c-0.2,0.6-0.5,0.9-0.8,1.1c-0.3,0.2-0.7,0.2-0.9,0.2c0,0-0.1,0-0.1,0
	c0,0,0,0,0,0c0,0,0,0,0,0c-0.3,0-0.7,0.2-0.7,0.6c0,0.3,0.2,0.7,0.6,0.7c0,0,0.1,0,0.2,0c0.3,0,0.8,0,1.4-0.3
	c0.6-0.3,1.2-0.9,1.5-1.9C28.7,28.8,28.5,28.5,28.1,28.4z"/>
<path class="st4" d="M47.8,19.1c0.1,0,0.1,0,0.2,0C47.9,19.1,47.8,19.1,47.8,19.1z"/>
</svg>
