<?xml version="1.0" encoding="utf-8"?>
<!-- Generator: Adobe Illustrator 24.1.3, SVG Export Plug-In . SVG Version: 6.00 Build 0)  -->
<svg version="1.1" id="Laag_1" xmlns="http://www.w3.org/2000/svg" xmlns:xlink="http://www.w3.org/1999/xlink" x="0px" y="0px"
	 viewBox="0 0 34.6 34.6" style="enable-background:new 0 0 34.6 34.6;" xml:space="preserve">
<style type="text/css">
	.st0{fill:#18696E;}
	.st1{fill:none;stroke:#484E57;stroke-width:1.5;stroke-miterlimit:10;}
	.st2{fill:#E62050;}
	.st3{fill:#31B6DD;}
</style>
<path class="st0" d="M17.5,28.7c-1.6,0-3.3,0-4.9,0c-2.8,0.1-5.5,0.2-5.2-3.9c0.3-3.7,3.4-6.6,6.5-5.8c2.3,0.7,4.7,0.7,7,0
	c2.1-0.6,3.9,0.7,5.2,2.4c1.3,1.8,1.6,4.1,0.8,6.1c-0.4,1.1-1.5,1.3-2.5,1.2C22,28.7,19.7,28.7,17.5,28.7z"/>
<path class="st0" d="M11.6,11.3v-0.1c0.1-1.5,0.7-2.9,1.7-3.9C14.1,7,15,6.9,15.9,6.9c3.2,0.3,5.8,2.2,7.1,5c-0.2,3-2.7,5.3-5.7,5.1
	l0,0C14.1,16.9,11.5,14.4,11.6,11.3z"/>
<path class="st1" d="M17.5,28.7c-1.6,0-3.3,0-4.9,0c-2.8,0.1-5.5,0.2-5.2-3.9c0.3-3.7,3.4-6.6,6.5-5.8c2.3,0.7,4.7,0.7,7,0
	c2.1-0.6,3.9,0.7,5.2,2.4c1.3,1.8,1.6,4.1,0.8,6.1c-0.4,1.1-1.5,1.3-2.5,1.2C22,28.7,19.7,28.7,17.5,28.7z"/>
<path class="st2" d="M32.6,17.8c-1.1-1.4-2.5-2.5-4.3-2c-1.3,0.4-2.6,0.5-3.9,0.3v1.2c1.6,0.4,2.9,1.6,4,3.1c0.8,1,1.2,2.2,1.5,3.5
	c0.4,0,0.9,0,1.3,0c0.9,0,1.8-0.1,2.1-1C33.9,21.2,33.7,19.3,32.6,17.8z"/>
<path class="st3" d="M27,13.4c-0.7-0.1-1.3-0.2-1.9-0.4c-0.1,0.5-0.3,0.9-0.5,1.4c0.3,0.1,0.6,0.1,0.9,0.2c1.4,0,2.6-0.6,3.5-1.5
	C28.5,13.3,27.8,13.4,27,13.4z"/>
<path class="st3" d="M25.9,5L25.9,5c-1.1,0-2.1,0.3-2.9,0.9c1.4,1.4,2.3,3.4,2.3,5.6v0.2c0,0.5-0.1,0.9-0.2,1.4
	c0.6,0.2,1.2,0.4,1.9,0.4c0.7,0,1.5-0.1,2.1-0.3c0.8-0.8,1.4-2,1.5-3.2V9.8C30.6,7.1,28.5,5,25.9,5z"/>
<path class="st1" d="M25.9,5L25.9,5c-1.1,0-2.1,0.3-2.9,0.9c1.4,1.4,2.3,3.4,2.3,5.6v0.2c-0.1,1-0.3,1.9-0.7,2.8
	c0.3,0.1,0.6,0.1,0.9,0.2c1.4,0,2.6-0.6,3.5-1.5c0.8-0.8,1.4-2,1.5-3.2V9.8C30.6,7.1,28.5,5,25.9,5z"/>
<path class="st1" d="M32.6,17.8c-1.1-1.4-2.5-2.5-4.3-2c-1.3,0.4-2.6,0.5-3.9,0.3v1.2c1.6,0.4,2.9,1.6,4,3.1c0.8,1,1.2,2.2,1.5,3.5
	c0.4,0,0.9,0,1.3,0c0.9,0,1.8-0.1,2.1-1C33.9,21.2,33.7,19.3,32.6,17.8z"/>
<path class="st2" d="M2.2,17.8c1.1-1.4,2.5-2.5,4.3-2c1.3,0.4,2.6,0.5,3.9,0.3v1.2c-1.6,0.4-2.9,1.6-4,3.1c-0.8,1-1.2,2.2-1.5,3.5
	c-0.4,0-0.9,0-1.3,0c-0.9,0-1.8-0.1-2.1-1C0.9,21.2,1.2,19.3,2.2,17.8z"/>
<path class="st3" d="M8.9,5L8.9,5C10,5,11,5.3,11.8,5.9c-1.4,1.5-2.3,3.5-2.3,5.8v0.2c0,0.5,0.1,1,0.2,1.4c-0.6,0.2-1.2,0.4-1.9,0.4
	s-1.5-0.1-2.1-0.3c-0.8-0.9-1.4-2-1.5-3.4l0,0C4.2,7.2,6.3,5,8.9,5z"/>
<path class="st1" d="M2.2,17.8c1.1-1.4,2.5-2.5,4.3-2c1.3,0.4,2.6,0.5,3.9,0.3v1.2c-1.6,0.4-2.9,1.6-4,3.1c-0.8,1-1.2,2.2-1.5,3.5
	c-0.4,0-0.9,0-1.3,0c-0.9,0-1.8-0.1-2.1-1C0.9,21.2,1.2,19.3,2.2,17.8z"/>
<path class="st3" d="M10.3,13.4c-0.1,0-0.2,0-0.4,0c-2.6-0.2-4.7-1.8-5.7-4v0.1c-0.1,2.6,1.8,4.8,4.4,5c0.6,0,1.2-0.1,1.7-0.3V13.4z
	"/>
<path class="st1" d="M8.9,5L8.9,5C10,5,11,5.3,11.8,5.9c-1.4,1.4-2.3,3.4-2.3,5.6v0.2c0.1,1,0.3,1.9,0.7,2.8
	c-0.3,0.1-0.6,0.1-0.9,0.2c-1.4,0-2.6-0.6-3.5-1.5c-0.8-0.8-1.4-2-1.5-3.2V9.8C4.2,7.1,6.3,5,8.9,5z"/>
<path class="st0" d="M13.3,7.5c1.1-1.1,2.6-1.8,4.3-1.8c3.2,0.3,5.6,3,5.4,6.2V12c-1.3-2.7-3.9-4.7-7.1-5C15,7.1,14.1,7.3,13.3,7.5z
	"/>
<path class="st1" d="M11.6,11.6v-0.1c0.1-1.5,0.7-2.9,1.7-3.9c1.1-1.1,2.6-1.8,4.3-1.8c3.2,0.3,5.6,3,5.4,6.2v0.1
	c-0.2,3-2.7,5.3-5.7,5.1l0,0C14.1,17.2,11.5,14.7,11.6,11.6z"/>
</svg>
