<svg xmlns="http://www.w3.org/2000/svg" viewBox="0 0 24.35 25.8"><defs><style>.cls-1{fill:#fff;}</style></defs><title>thumbs_up</title><g id="Laag_2" data-name="Laag 2"><g id="Laag_1-2" data-name="Laag 1"><path class="cls-1" d="M18.82,7.32c.6.08,1.34.16,2.07.31a4.47,4.47,0,0,1,3.33,5.48c-.42,1.76-.55,3.59-1,5.35a22.89,22.89,0,0,1-1.58,4.91c-1,2.06-3.16,2.32-5.22,2.41a18,18,0,0,1-7.93-1.53,3.07,3.07,0,0,0-2.4.18A13.86,13.86,0,0,1,1,24.6c-.36,0-.89-1.1-.9-1.71C0,19.14,0,15.37,0,11.61c0-1.42.69-2.19,2.11-2,3.3.5,5.73-.52,7.26-3.53.34-.66.71-1.3,1-2,.18-.43.2-.91.35-1.36C11.46.71,12.36,0,14.11,0a4.21,4.21,0,0,1,4.28,3A31.28,31.28,0,0,1,18.82,7.32ZM6.9,21a34.23,34.23,0,0,0,4.15,1.23c2.16.36,4.35.54,6.53.72a1.76,1.76,0,0,0,1.89-1.54c.22-.79.53-1.55.69-2.35.28-1.39.49-2.8.72-4.21a5.52,5.52,0,0,1,.32-1.71,1.84,1.84,0,0,0-1.66-2.85,29.17,29.17,0,0,1-3.24,0c-2,0-2.08-.18-1.39-2.08a13.56,13.56,0,0,0,.81-3.91c0-.49-.88-1-1.36-1.53-.32.45-.81.85-.94,1.34a14.83,14.83,0,0,1-6,8.19,1.18,1.18,0,0,0-.48.72C6.89,15.66,6.9,18.33,6.9,21Zm-2.1.74L3.5,20.57c-.3.35-.76.68-.83,1.07s.48.89.74.88S4.18,22.09,4.8,21.69Z"/></g></g></svg>