<?xml version="1.0" encoding="utf-8"?>
<!-- Generator: Adobe Illustrator 24.1.2, SVG Export Plug-In . SVG Version: 6.00 Build 0)  -->
<svg version="1.1" id="Layer_1" xmlns="http://www.w3.org/2000/svg" xmlns:xlink="http://www.w3.org/1999/xlink" x="0px" y="0px"
	 viewBox="0 0 744 768" style="enable-background:new 0 0 744 768;" xml:space="preserve">
<style type="text/css">
	.st0{fill:#1D1D1B;}
</style>
<g>
	<circle class="st0" cx="654.8" cy="29.1" r="1"/>
	<circle class="st0" cx="686.6" cy="60.8" r="14.2"/>
	<circle class="st0" cx="718.3" cy="92.6" r="0.7"/>
	<circle class="st0" cx="591.4" cy="29.1" r="1.1"/>
	<circle class="st0" cx="623.1" cy="60.8" r="20.7"/>
	<circle class="st0" cx="654.8" cy="92.6" r="28"/>
	<circle class="st0" cx="686.6" cy="124.3" r="19.7"/>
	<circle class="st0" cx="718.3" cy="156" r="0.7"/>
	<circle class="st0" cx="527.9" cy="29.1" r="1"/>
	<circle class="st0" cx="559.7" cy="60.8" r="20.7"/>
	<circle class="st0" cx="591.4" cy="92.6" r="28"/>
	<circle class="st0" cx="623.1" cy="124.3" r="28"/>
	<circle class="st0" cx="654.8" cy="156" r="28"/>
	<circle class="st0" cx="686.6" cy="187.8" r="19.8"/>
	<circle class="st0" cx="718.3" cy="219.5" r="0.7"/>
	<circle class="st0" cx="464.5" cy="29.1" r="0.6"/>
	<circle class="st0" cx="496.2" cy="60.8" r="20.4"/>
	<circle class="st0" cx="527.9" cy="92.6" r="28"/>
	<circle class="st0" cx="559.7" cy="124.3" r="28"/>
	<circle class="st0" cx="591.4" cy="156" r="28"/>
	<circle class="st0" cx="623.1" cy="187.8" r="28"/>
	<circle class="st0" cx="654.8" cy="219.5" r="28"/>
	<circle class="st0" cx="686.6" cy="251.2" r="19.7"/>
	<circle class="st0" cx="718.3" cy="282.9" r="0.7"/>
	<circle class="st0" cx="432.7" cy="60.8" r="0.2"/>
	<circle class="st0" cx="464.5" cy="92.6" r="14.9"/>
	<circle class="st0" cx="496.2" cy="124.3" r="27.9"/>
	<circle class="st0" cx="527.9" cy="156" r="28"/>
	<circle class="st0" cx="559.7" cy="187.8" r="28"/>
	<circle class="st0" cx="591.4" cy="219.5" r="28"/>
	<circle class="st0" cx="623.1" cy="251.2" r="28"/>
	<circle class="st0" cx="654.8" cy="282.9" r="28"/>
	<circle class="st0" cx="686.6" cy="314.7" r="19.9"/>
	<circle class="st0" cx="718.3" cy="346.4" r="0.9"/>
	<circle class="st0" cx="432.7" cy="124.3" r="0.2"/>
	<circle class="st0" cx="464.5" cy="156" r="15.1"/>
	<circle class="st0" cx="496.2" cy="187.8" r="27.9"/>
	<circle class="st0" cx="527.9" cy="219.5" r="28"/>
	<circle class="st0" cx="559.7" cy="251.2" r="28"/>
	<circle class="st0" cx="591.4" cy="282.9" r="28"/>
	<circle class="st0" cx="623.1" cy="314.7" r="28"/>
	<circle class="st0" cx="654.8" cy="346.4" r="28"/>
	<circle class="st0" cx="686.6" cy="378.1" r="19.9"/>
	<circle class="st0" cx="718.3" cy="409.9" r="0.7"/>
	<circle class="st0" cx="432.7" cy="187.8" r="0.2"/>
	<circle class="st0" cx="464.5" cy="219.5" r="15.1"/>
	<circle class="st0" cx="496.2" cy="251.2" r="27.9"/>
	<circle class="st0" cx="527.9" cy="282.9" r="28"/>
	<circle class="st0" cx="559.7" cy="314.7" r="28"/>
	<circle class="st0" cx="591.4" cy="346.4" r="28"/>
	<circle class="st0" cx="623.1" cy="378.1" r="28"/>
	<circle class="st0" cx="654.8" cy="409.9" r="28"/>
	<circle class="st0" cx="686.6" cy="441.6" r="19.9"/>
	<circle class="st0" cx="718.3" cy="473.3" r="0.9"/>
	<circle class="st0" cx="432.7" cy="251.2" r="6.5"/>
	<circle class="st0" cx="464.5" cy="282.9" r="27.1"/>
	<circle class="st0" cx="496.2" cy="314.7" r="28"/>
	<circle class="st0" cx="527.9" cy="346.4" r="28"/>
	<circle class="st0" cx="559.7" cy="378.1" r="28"/>
	<circle class="st0" cx="591.4" cy="409.9" r="28"/>
	<circle class="st0" cx="623.1" cy="441.6" r="28"/>
	<circle class="st0" cx="654.8" cy="473.3" r="28"/>
	<circle class="st0" cx="686.6" cy="505" r="19.9"/>
	<circle class="st0" cx="718.3" cy="536.8" r="0.7"/>
	<circle class="st0" cx="369.3" cy="251.2" r="6.3"/>
	<circle class="st0" cx="401" cy="282.9" r="26"/>
	<circle class="st0" cx="432.7" cy="314.7" r="28"/>
	<circle class="st0" cx="464.5" cy="346.4" r="28"/>
	<circle class="st0" cx="496.2" cy="378.1" r="28"/>
	<circle class="st0" cx="527.9" cy="409.9" r="28"/>
	<circle class="st0" cx="559.7" cy="441.6" r="28"/>
	<circle class="st0" cx="591.4" cy="473.3" r="28"/>
	<circle class="st0" cx="623.1" cy="505" r="28"/>
	<circle class="st0" cx="654.8" cy="536.8" r="28"/>
	<circle class="st0" cx="686.6" cy="568.5" r="19.9"/>
	<circle class="st0" cx="718.3" cy="600.2" r="0.9"/>
	<circle class="st0" cx="305.8" cy="251.2" r="6.3"/>
	<circle class="st0" cx="337.6" cy="282.9" r="26"/>
	<circle class="st0" cx="369.3" cy="314.7" r="28"/>
	<circle class="st0" cx="401" cy="346.4" r="28"/>
	<circle class="st0" cx="432.7" cy="378.1" r="28"/>
	<circle class="st0" cx="464.5" cy="409.9" r="28"/>
	<circle class="st0" cx="496.2" cy="441.6" r="28"/>
	<circle class="st0" cx="527.9" cy="473.3" r="28"/>
	<circle class="st0" cx="559.7" cy="505" r="28"/>
	<circle class="st0" cx="591.4" cy="536.8" r="28"/>
	<circle class="st0" cx="623.1" cy="568.5" r="28"/>
	<circle class="st0" cx="654.8" cy="600.2" r="28"/>
	<circle class="st0" cx="686.6" cy="631.9" r="19.9"/>
	<circle class="st0" cx="718.3" cy="663.7" r="0.7"/>
	<circle class="st0" cx="242.4" cy="251.2" r="1"/>
	<circle class="st0" cx="274.1" cy="282.9" r="24"/>
	<circle class="st0" cx="305.8" cy="314.7" r="28"/>
	<circle class="st0" cx="337.6" cy="346.4" r="28"/>
	<circle class="st0" cx="369.3" cy="378.1" r="28"/>
	<circle class="st0" cx="401" cy="409.9" r="28"/>
	<circle class="st0" cx="432.7" cy="441.6" r="28"/>
	<circle class="st0" cx="464.5" cy="473.3" r="28"/>
	<circle class="st0" cx="496.2" cy="505" r="28"/>
	<circle class="st0" cx="527.9" cy="536.8" r="28"/>
	<circle class="st0" cx="559.7" cy="568.5" r="28"/>
	<circle class="st0" cx="591.4" cy="600.2" r="28"/>
	<circle class="st0" cx="623.1" cy="631.9" r="28"/>
	<circle class="st0" cx="654.8" cy="663.7" r="28"/>
	<circle class="st0" cx="686.6" cy="695.4" r="14.6"/>
	<circle class="st0" cx="242.4" cy="314.7" r="6.2"/>
	<circle class="st0" cx="274.1" cy="346.4" r="25.9"/>
	<circle class="st0" cx="305.8" cy="378.1" r="28"/>
	<circle class="st0" cx="337.6" cy="409.9" r="28"/>
	<circle class="st0" cx="369.3" cy="441.6" r="28"/>
	<circle class="st0" cx="401" cy="473.3" r="28"/>
	<circle class="st0" cx="432.7" cy="505" r="28"/>
	<circle class="st0" cx="464.5" cy="536.8" r="28"/>
	<circle class="st0" cx="496.2" cy="568.5" r="28"/>
	<circle class="st0" cx="527.9" cy="600.2" r="28"/>
	<circle class="st0" cx="559.7" cy="631.9" r="28"/>
	<circle class="st0" cx="591.4" cy="663.7" r="28"/>
	<circle class="st0" cx="623.1" cy="695.4" r="21.3"/>
	<circle class="st0" cx="654.8" cy="727.1" r="1.7"/>
	<circle class="st0" cx="242.4" cy="378.1" r="6.2"/>
	<circle class="st0" cx="274.1" cy="409.9" r="25.9"/>
	<circle class="st0" cx="305.8" cy="441.6" r="28"/>
	<circle class="st0" cx="337.6" cy="473.3" r="28"/>
	<circle class="st0" cx="369.3" cy="505" r="28"/>
	<circle class="st0" cx="401" cy="536.8" r="28"/>
	<circle class="st0" cx="432.7" cy="568.5" r="28"/>
	<circle class="st0" cx="464.5" cy="600.2" r="28"/>
	<circle class="st0" cx="496.2" cy="631.9" r="28"/>
	<circle class="st0" cx="527.9" cy="663.7" r="28"/>
	<circle class="st0" cx="559.7" cy="695.4" r="21.4"/>
	<circle class="st0" cx="591.4" cy="727.1" r="1.9"/>
	<circle class="st0" cx="242.4" cy="441.6" r="6.3"/>
	<circle class="st0" cx="274.1" cy="473.3" r="26.8"/>
	<circle class="st0" cx="305.8" cy="505" r="28"/>
	<circle class="st0" cx="337.6" cy="536.8" r="28"/>
	<circle class="st0" cx="369.3" cy="568.5" r="28"/>
	<circle class="st0" cx="401" cy="600.2" r="28"/>
	<circle class="st0" cx="432.7" cy="631.9" r="28"/>
	<circle class="st0" cx="464.5" cy="663.7" r="28"/>
	<circle class="st0" cx="496.2" cy="695.4" r="21.3"/>
	<circle class="st0" cx="527.9" cy="727.1" r="1.9"/>
	<circle class="st0" cx="178.9" cy="441.6" r="0.1"/>
	<circle class="st0" cx="210.6" cy="473.3" r="12.3"/>
	<circle class="st0" cx="242.4" cy="505" r="27.7"/>
	<circle class="st0" cx="274.1" cy="536.8" r="28"/>
	<circle class="st0" cx="305.8" cy="568.5" r="28"/>
	<circle class="st0" cx="337.6" cy="600.2" r="28"/>
	<circle class="st0" cx="369.3" cy="631.9" r="28"/>
	<circle class="st0" cx="401" cy="663.7" r="28"/>
	<circle class="st0" cx="432.7" cy="695.4" r="21.4"/>
	<circle class="st0" cx="464.5" cy="727.1" r="1.9"/>
	<circle class="st0" cx="115.5" cy="441.6" r="0.1"/>
	<circle class="st0" cx="147.2" cy="473.3" r="12.3"/>
	<circle class="st0" cx="178.9" cy="505" r="27.7"/>
	<circle class="st0" cx="210.6" cy="536.8" r="28"/>
	<circle class="st0" cx="242.4" cy="568.5" r="28"/>
	<circle class="st0" cx="274.1" cy="600.2" r="28"/>
	<circle class="st0" cx="305.8" cy="631.9" r="28"/>
	<circle class="st0" cx="337.6" cy="663.7" r="28"/>
	<circle class="st0" cx="369.3" cy="695.4" r="21.3"/>
	<circle class="st0" cx="401" cy="727.1" r="1.9"/>
	<circle class="st0" cx="52" cy="441.6" r="0.1"/>
	<circle class="st0" cx="83.7" cy="473.3" r="12.3"/>
	<circle class="st0" cx="115.5" cy="505" r="27.7"/>
	<circle class="st0" cx="147.2" cy="536.8" r="28"/>
	<circle class="st0" cx="178.9" cy="568.5" r="28"/>
	<circle class="st0" cx="210.6" cy="600.2" r="28"/>
	<circle class="st0" cx="242.4" cy="631.9" r="28"/>
	<circle class="st0" cx="274.1" cy="663.7" r="28"/>
	<circle class="st0" cx="305.8" cy="695.4" r="21.4"/>
	<circle class="st0" cx="337.6" cy="727.1" r="1.9"/>
	<circle class="st0" cx="20.3" cy="473.3" r="0.4"/>
	<circle class="st0" cx="52" cy="505" r="20.4"/>
	<circle class="st0" cx="83.7" cy="536.8" r="28"/>
	<circle class="st0" cx="115.5" cy="568.5" r="28"/>
	<circle class="st0" cx="147.2" cy="600.2" r="28"/>
	<circle class="st0" cx="178.9" cy="631.9" r="28"/>
	<circle class="st0" cx="210.6" cy="663.7" r="28"/>
	<circle class="st0" cx="242.4" cy="695.4" r="21.3"/>
	<circle class="st0" cx="274.1" cy="727.1" r="1.9"/>
	<circle class="st0" cx="20.3" cy="536.8" r="1"/>
	<circle class="st0" cx="52" cy="568.5" r="20.4"/>
	<circle class="st0" cx="83.7" cy="600.2" r="28"/>
	<circle class="st0" cx="115.5" cy="631.9" r="28"/>
	<circle class="st0" cx="147.2" cy="663.7" r="28"/>
	<circle class="st0" cx="178.9" cy="695.4" r="21.2"/>
	<circle class="st0" cx="210.6" cy="727.1" r="1.7"/>
	<circle class="st0" cx="20.3" cy="600.2" r="1"/>
	<circle class="st0" cx="52" cy="631.9" r="20.5"/>
	<circle class="st0" cx="83.7" cy="663.7" r="28"/>
	<circle class="st0" cx="115.5" cy="695.4" r="21.2"/>
	<circle class="st0" cx="147.2" cy="727.1" r="1.7"/>
	<circle class="st0" cx="20.3" cy="663.7" r="1"/>
	<circle class="st0" cx="52" cy="695.4" r="15.1"/>
	<circle class="st0" cx="83.7" cy="727.1" r="1.7"/>
</g>
</svg>
